<?xml version="1.0" encoding="utf-8"?>
<!-- Generator: Adobe Illustrator 21.0.2, SVG Export Plug-In . SVG Version: 6.00 Build 0)  -->
<svg version="1.1" xmlns="http://www.w3.org/2000/svg" xmlns:xlink="http://www.w3.org/1999/xlink" x="0px" y="0px"
	 viewBox="0 0 800 800" style="enable-background:new 0 0 800 800;" xml:space="preserve">
<style type="text/css">
	.st0{fill:none;}
	.st1{fill:#57167D;}
	.st2{fill:#CA6569;}
	.st3{fill:#72191C;}
	.st4{fill:#5D1617;}
	.st5{fill:#C02A23;}
	.st6{fill:#C44645;}
	.st7{fill:#621949;}
	.st8{fill:#A01127;}
	.st9{fill:#084C5D;}
	.st10{fill:#BE0411;}
	.st11{opacity:0.4;}
	.st12{opacity:6.000000e-02;}
	.st13{clip-path:url(#SVGID_2_);}
</style>
<g id="Objects_1_">
	<g>
		<path class="st0" d="M800,10.2V0h-93.9l0.4,3.1l-1.8,5.2l-0.3-2.6c-2.1,4.7-7.1,14.9-9.6,22.5c-1.1,3.3-1.5,5.9-1.6,7.5
			c1.8,1.9,8.2,4,8.2,4l14.5,2.4c0,0,7.8,1.1,12.1,2.9c1.5,0.7,2.3,1.6,2.7,2.4c0,0,0-0.1,0-0.1s1.7,2.3,1.9,5.7
			c0.2,3.4-4.5,7.4-4.5,7.4s-7,6-11.2,8c-1.5,0.7-3,1.8-4.2,2.8c1.5,0.1,4.9,0.4,4.9,0.4s5.4,0.2,10.3,0.3c4.9,0,8.8,2.1,10.6,3
			c0.4,0.2,0.7,0.6,0.9,1c0,0,0-0.1,0-0.1l2.3,5.5c0,0,0,0,0,0.1l0.4,0.2l0.2,4.7l-1.7-1.6c-0.1,0.2-0.2,0.3-0.3,0.5
			c-0.1,0.2-0.3,0.4-0.4,0.6c0.7,0.2,1.3,0.4,1.9,0.6c1.5,0.9,2.2,2,2.4,3c0,0,0,0,0,0l1.9,4.7c0,0-0.5,2.6-1.6,4.5
			c0,0.1-0.1,0.2-0.2,0.2c0.4,0.2,0.8,0.5,1.1,0.9c0,0,0,0,0,0.1l1.6,5.1c0,0,0.5,0.8-2.1,3.5c-2.6,2.6-5.9,3.8-5.9,3.8
			s-0.5-3.7-0.7-5.2c2.5-0.5,4.2-2.2,5.3-3.8c-0.6-0.2-1.5-0.3-2.5-0.3l-0.1,1.1l-2.3-0.1c-1,0.8-2,1.5-2.8,2.1
			c-3,2.2-6.6,2.2-6.6,2.2l-1.8-5.2c0,0,0.9-2.4,4.4-3.3c0.8-0.2,1.8-0.5,2.9-0.8l0.3-2.9l5.3,0.3c0.5-0.4,0.8-0.7,1.1-0.9
			c1-0.9,1.7-2.5,2.1-3.9c-1.5-0.4-5.9-1.5-8.4-1.2c-1.1,0.9-2.5,1.9-4,3c-5,3.5-9.4,2.6-9.4,2.6l-0.8-1.9l-2.6-0.6l1.7-1.5
			l-0.4-0.9c0,0,0.1,0,0.1,0l-0.4-0.9c0,0,0.8-1.5,5.7-3c2.2-0.7,5.1-1.2,7.9-1.5c1.6-1.2,3.4-2.8,4.6-4.1c0.5-0.6,0.8-1.3,1.1-2.1
			c-2.8-1.4-9-2.6-14.8-2.7l-0.5,0.4l-1.9-0.4c-0.4,0-0.7,0-1,0c-7.6,0.4-11.4-1.8-11.6-1.9c0,0,0,0,0,0l-1.7-4.9
			c0,0,3.7-4.7,7.5-6.6c3.9-1.8,11.2-8.1,13.1-9.7c0.9-0.7,1.5-2.1,1.9-3.4l-7.3-2.5l-14-2.3c0,0-10.1-2.3-13.1-4.5
			c-1.5-1.1-2.2-2.5-2.5-3.6c0,0,0,0,0,0c-5.4-8.6,7.9-32.2,7.9-32.2l3.3-1.3l-0.2-1.8l0.7-2.1H586.1v8.1c0,0-19.1-10.9-27.3,2.7
			l-2-10.9h-46.1l-0.8,1.2L509.4,0h-6l-0.9,6.9c0,0-11.8-8.9-18.5-0.5L483.7,0h-55.8l-0.3,2.2l-4,2l0.6-4.2h-36.4l-0.5,4.5l-1.8-2.3
			l0.9-2.2h-16.7c-0.5,0.9-0.9,1.4-0.9,1.4c0.1-0.4,0-0.8-0.1-1.4h-85l2,1.6l1.5,3.3l-4.4-3.6L282.3,0h-36.4l-1.6,4.3
			c0,0,0.1,0,0.1,0.1c1.6,0.9,2.2,2,2.4,3c0,0,0,0,0,0l1.9,4.7c0,0-0.5,2.6-1.6,4.5c0,0.1-0.1,0.2-0.2,0.2c0.4,0.2,0.8,0.5,1.1,0.9
			c0,0,0,0,0,0.1l1.6,5.1c0,0,0.5,0.8-2.1,3.5c-2.6,2.6-5.9,3.8-5.9,3.8s-0.5-3.7-0.7-5.2c2.5-0.5,4.2-2.2,5.3-3.8
			c-0.7-0.2-2-0.4-3.2-0.2c-0.2,0-0.5,0.1-0.8,0.2c-1.3,1-2.6,2-3.7,2.8c-3,2.2-6.6,2.2-6.6,2.2l-1.8-5.2c0,0,0.9-2.4,4.4-3.3
			c1.6-0.4,3.8-1.2,6.1-1.6c1.6-1.2,2.9-2.3,3.5-2.9c1-0.9,1.7-2.5,2.1-3.9c-1.5-0.4-5.9-1.5-8.4-1.2c-1.1,0.9-2.5,1.9-4,3
			c-5,3.5-9.4,2.6-9.4,2.6l-2-4.9c0,0,0.1,0,0.1,0l-0.4-0.9c0,0,0.8-1.5,5.7-3c2.2-0.7,5.1-1.2,7.9-1.5c0.5-0.4,1.1-0.9,1.6-1.3
			l0.8-2.1h-68.4l-0.9,6.9c0,0-11.8-8.9-18.5-0.5L150.2,0H88.7l-1.6,3.9L84.6,0H33.4l0.5,0.7L31.8,0H0v2l0,0l0,0v24.4
			c4.2,0.4,6.5,3.7,6.5,3.7c-1.3-0.5-3.9-0.1-6.5,0.6v12.6l1.5,0.2l2,4L0,47.2v28.5l3.5,0.9L0,80.3v22l2.9,0.9l4.3,5.3L0,106.2
			v142.9l8.9,0.1c0,0,5.5-0.7,7.1-1.8c-0.2-1.2-0.6-3.2-1.6-5.7c-2.9-7.1-8.9-17.3-9.8-19.3l3.8,1.8c0,0,12.2,18.9,7.7,24.4
			c0,0,0,0,0,0c-0.2,0.8-0.8,1.7-2.1,2.3c-2.6,1.2-11.4,1.6-11.4,1.6l-2.6,0v13.9c2.4,1.9,4.3,4.1,4.3,4.1l-1.4,3.3c0,0,0,0,0,0
			c-0.1,0-1,0.3-2.8,0.5V305c1.7-0.4,3.5-0.5,5.5-0.3l9.2,8.9c0,0-9.7,2.8-14.7,9.5v94.5c1.7-0.4,3.6-0.6,5.7-0.4l9.2,8.9
			c0,0-10,2.9-14.9,9.7V800h800V316.6l-4.9-0.7l3-6l1.9,1.1V133.8l-2.2,1.9l-4-0.9l3.2-2.8l3,0.7v-18.6l-0.2,0.7l-0.7-6.2l0.9-2.7
			V76.4l-0.5-2.2l0.5,0.2V13.5l-0.3,0.2l-4.1-1l3.2-2.8L800,10.2z M723.2,35.2l-4.1-1l3.2-2.8l4.1,1L723.2,35.2z M722.1,19.9
			l-3.6-5.7l6.8-3.8l3.6,5.7L722.1,19.9z M741.5,42.1l-1.4-6l1.1-5.7l1.4,6L741.5,42.1z M6.2,356.1L3,360.5l1.2-6.1l3.2-4.4
			L6.2,356.1z M797.8,190.5l-0.8,3.4l-1.1-0.6l-0.2-4.8L797.8,190.5z M789.4,180.2l-1.3-6.1l1.2-5.7l1.3,6.1L789.4,180.2z
			 M790.9,299.7l-2.5,3.3l-1.3-4.1l2.5-3.3L790.9,299.7z M788.4,33.1l2.1,5.8l-3.7-3.2l-2.1-5.8L788.4,33.1z M788,283l-6.1-1.2
			l-4.8-3.3l6.1,1.2L788,283z M782,320.5l-2.5,3.3l-1.3-4.1l2.5-3.3L782,320.5z M778.7,202.1l3.7-2.6l0.1,7l-3.7,2.6L778.7,202.1z
			 M774.7,119.3l-1.1-7l8.2-0.9l1.1,7L774.7,119.3z M777.9,20.4l4.1,1l-3.2,2.8l-4.1-1L777.9,20.4z M772.2,59.3l6.7,0.3l-0.8,7.8
			l-6.7-0.3L772.2,59.3z M774.3,78.5l3.1,4.5l-3.9-1.1l-3.1-4.5L774.3,78.5z M773,108.7l-3.2,2.8l-4.1-1l3.2-2.8L773,108.7z
			 M760,194.4l0.1,7l-3.7,2.6l-0.1-7L760,194.4z M757.5,164l4.7,1.9l1.4,6.7l-4.7-1.9L757.5,164z M762,286.3l3.5-0.6L761,289
			l-3.5,0.6L762,286.3z M764.9,156.3l0.8-7.8l6.7,0.3l-0.8,7.8L764.9,156.3z M762.3,2.3l4.6,3.1l1.4,5l-6.7-0.3L762.3,2.3z
			 M754.8,52.6l-2-3l4.9,2.8l2,3L754.8,52.6z M755.2,20.8l4.1,1l-3.2,2.8l-4.1-1L755.2,20.8z M753.9,216.7l-4.9-2.8l-2-3l4.9,2.8
			L753.9,216.7z M739.4,236.7l1.3,4.1l-2.5,3.3l-1.3-4.1L739.4,236.7z M737.1,213.4l0.8-3.3l1,0.6l0.2,4.7L737.1,213.4z
			 M738.7,260.1l2.7,2.1l-1,0.7l-4.4-1.7L738.7,260.1z M742.1,295.6l6.8,3.9l-3,6l-6.8-3.9L742.1,295.6z M747.7,175.8l3.6,5.7
			l-6.8,3.8l-3.6-5.7L747.7,175.8z M739,123.2l4,0.9l-3.2,2.8l-4-0.9L739,123.2z M743.9,157.2l1.1,7l-8.2,0.9l-1.1-7L743.9,157.2z
			 M730,146.9l4.1,1l-3.2,2.8l-4.1-1L730,146.9z M730.4,293.5l-5.3,1l2.6-3.1l5.3-1L730.4,293.5z M732.9,366.9l-3.8,5l-1.9-6.2
			l3.8-5L732.9,366.9z M720.5,252.9l3-6l6.8,3.9l-3,6L720.5,252.9z M724,318.3l-3.6,3.5l-6.7-1.5l3.6-3.5L724,318.3z M727.3,185.9
			l0.9-5.7l3.1-3.4l-0.9,5.8L727.3,185.9z M720.2,122.3l6,1.4l-4.7,4.2l-6-1.4L720.2,122.3z M716.3,237.8l2.7,4.5l-3.4,3.1l-2.7-4.5
			L716.3,237.8z M710.6,220.2l1.9,6l-3.7,4.9l-1.9-6L710.6,220.2z M712.8,353l-2.7,1.1l-2.8-2.1l1-0.7L712.8,353z M706.7,52.9
			l2.1,5.8l-3.7-3.2l-2.1-5.8L706.7,52.9z M704.7,272.6l1.3,4.1l-2.5,3.3l-1.3-4.1L704.7,272.6z M706,371l6.2,0.5l-4.4,2l-6.2-0.5
			L706,371z M704.1,393.4l1.3,4.1l-2.5,3.3l-1.3-4.1L704.1,393.4z M698.7,184.1l1.9,6l-3.7,4.9l-1.9-6L698.7,184.1z M693,277.2
			l6.9,1.9l-2.6,7.9l-6.9-1.9L693,277.2z M690.9,305.7l-4-3.7l5.9,1.9l4,3.7L690.9,305.7z M695.8,336.2l-6.6,0.9l-0.7-7.8l3.5-0.5
			l0.7-0.9l0.2,0.8l2.2-0.3L695.8,336.2z M690.2,143.1l-3.6,4.4l-3.3,1.5l3.6-4.4L690.2,143.1z M655.7,246.8l-6.7-1.5l3.6-3.5
			l6.7,1.5L655.7,246.8z M658.9,294.5l-3,6l-6.8-3.9l3-6L658.9,294.5z M645.2,222.6l6.6-0.9l0.7,7.8l-6.6,0.9L645.2,222.6z
			 M645.7,343.9l-4.9-3.2l-1.8-4.2l4.9,3.2L645.7,343.9z M651.6,206.7l4.9,3.2l1.8,4.2l-4.9-3.2L651.6,206.7z M638.8,180.6l8.7-12
			c0,0,23.8,2.6,21.3,21.3l-9.3,8.8C659.6,198.6,654.4,177.2,638.8,180.6z M654.2,100.3l5.4,2.1l-6.2,0.4l-5.4-2.1L654.2,100.3z
			 M651.6,68.5l6.2-0.5l5.5,2l-6.2,0.5L651.6,68.5z M655,140.3l2.7,7.3l-6.2,2.6l-2.7-7.3L655,140.3z M652.8,161l2.9,3.6l-5.5-1.8
			l-2.9-3.6L652.8,161z M683.6,250.4l-1.1,8.5c0,0-11.8-8.9-18.5-0.5l-0.6-10C663.5,248.5,676.9,239.7,683.6,250.4z M678,138.7l-7-1
			l-2-4l7,1L678,138.7z M677.6,112.3l7,1l2,4l-7-1L677.6,112.3z M682.3,224.3l2.5-3.3l1.3,4.1l-2.5,3.3L682.3,224.3z M684.3,159.2
			l-3.2-1.3l0.8-0.9l4.7,0.5L684.3,159.2z M685.2,85.3l-7.5-1.9l3.8-4l5.1-0.6L685.2,85.3z M686.6,59.4l-8.3-2.6l-4.3-5.3l8.3,2.6
			L686.6,59.4z M676,16.4l3.2,1.3l-0.8,1l-4.8-0.5L676,16.4z M671.1,95.6l3.2,1.3l-0.8,1l-4.8-0.5L671.1,95.6z M666.6,39.2l-6.2,2.6
			l-2.7-7.3l6.2-2.6L666.6,39.2z M650.2,5.2l7.7,2.9l-2.2,6.8L648,12L650.2,5.2z M641.2,127l6.8-0.3l-2.6,4.4l-6.8,0.3L641.2,127z
			 M636.9,143.8l-0.4,8.3l-7.1,0l0.4-8.3L636.9,143.8z M630.8,32.5l2.9,3.6l-5.5-1.8l-2.9-3.6L630.8,32.5z M634.5,77.2l-1.4,6.6
			l-7.5-1.9l1.3-6.6L634.5,77.2z M626,114.4l7.5,1.9l-1.3,6.6l-7.5-1.9L626,114.4z M616.2,217.8l-3.5,0.6l4.6-3.3l3.5-0.6
			L616.2,217.8z M616.6,251.5l-6.5-2.8l-0.8-4.4l6.5,2.8L616.6,251.5z M611,184.2l7-4.4l4.1,5.8l-7,4.4L611,184.2z M619.9,205.5
			l2.6-1.1l2.7,2.1l-1,0.7L619.9,205.5z M621.1,6l3.3-1.5l-3.6,4.4l-3.3,1.5L621.1,6z M619,152.1l2.3,3.6l-1.6,3.9l-2.3-3.6
			L619,152.1z M615.4,90.9l-2.3-3.6l1.5-3.8l2.3,3.6L615.4,90.9z M590.9,368l-3.5,0.6l4.6-3.3l3.5-0.6L590.9,368z M593.1,436.8
			l1.9,6.2l-3.8,5l-1.9-6.2L593.1,436.8z M587.6,147.8l-2.5,3.9l-3.8-3.6l2.5-3.9L587.6,147.8z M584.8,111.4l1.6-3.9l2.3,3.6
			l-1.6,3.9L584.8,111.4z M586.1,236.6l-7,4.4l-4.1-5.8l7-4.4L586.1,236.6z M590.3,283.2l0.7,7.8l-6.6,0.9l-0.7-7.8L590.3,283.2z
			 M593.1,344.4l-2.8-2.1l1-0.7l4.5,1.7L593.1,344.4z M595.5,143.3l1.5-3.8l2.3,3.6l-1.5,3.8L595.5,143.3z M597.5,161.4l-2.3,5.7
			l-3.4-5.3l2.3-5.7L597.5,161.4z M597.2,107.5l-7.1,0l0.4-8.3l7.1,0L597.2,107.5z M590.4,81.8l-4.8-2.6l6.2,0.3l4.8,2.6L590.4,81.8
			z M592.4,18.3l2,4l-7-1l-2-4L592.4,18.3z M585.2,48.7l2.7,7.3l-3.3,1.4l-0.4,1.1l-0.4-0.7l-2,0.9l-2.7-7.3L585.2,48.7z
			 M569.5,136.2l7.5,1.9l-1.3,6.6l-7.5-1.9L569.5,136.2z M555.2,105.2l1.6-3.7l4.9-2.4l-1.6,3.7L555.2,105.2z M559.9,134.2l-2.3,1.8
			l-3.2-1.3l0.8-0.9L559.9,134.2z M562.3,151.3l2.3,3.6l-1.6,3.9l-2.3-3.6L562.3,151.3z M563.3,75.6l-6.8,0.3l2.6-4.4l6.8-0.3
			L563.3,75.6z M558.2,39.5l2.3-1.8l3.2,1.3l-0.8,1L558.2,39.5z M557.7,18.4l6.1-1.1l-3.8,3.1l-6.1,1.1L557.7,18.4z M554.9,208.5
			l6.8,3.9l-3,6l-6.8-3.9L554.9,208.5z M554.9,337l6.7,4.9l-3.9,6L551,343L554.9,337z M547.1,305.2l0.2-8.3l7.1-0.2l-0.2,8.3
			L547.1,305.2z M544.8,58.3l6.9,3.6l-2.8,6.1l-6.9-3.6L544.8,58.3z M545.4,147.7l2.3,3.6l-1.6,3.9l-2.3-3.6L545.4,147.7z
			 M537.5,100.7l1.4-6.6l7.5,1.9l-1.3,6.6L537.5,100.7z M537.5,25.6L541,31l-2.4,5.8l-3.5-5.4L537.5,25.6z M528.5,113.9l3.3-1.5
			l-3.6,4.4l-3.3,1.5L528.5,113.9z M533.1,218.4l-6.1-1.2l-4.8-3.3l6.1,1.2L533.1,218.4z M527.1,163.3l-3.8,3.1l-6.1,1.1l3.8-3.1
			L527.1,163.3z M518.2,249.6l-6.6,0.9l-0.7-7.8l6.6-0.9L518.2,249.6z M516.4,82.6l-6.1,1.1l3.8-3.1l6.1-1.1L516.4,82.6z
			 M517.1,17.5l3.5,5.4l-2.4,5.8l-3.5-5.4L517.1,17.5z M512.3,73.5l-3.2-1.3l0.8-1l4.8,0.5L512.3,73.5z M511.1,43.4l0.5,7.8
			l-6.7,0.7l-0.5-7.8L511.1,43.4z M510.2,126.4l5.5,2l-6.2,0.5l-5.5-2L510.2,126.4z M506.1,145.4l-1.6,3.9l-2.3-3.6l1.6-3.9
			L506.1,145.4z M501.5,85.2l2.3,3.6l-1.6,3.9l-2.3-3.6L501.5,85.2z M498.4,107.6l2.3,3.6l-1.6,3.9l-2.3-3.6L498.4,107.6z
			 M505.2,349.5c0,0-11.8-8.9-18.5-0.5l-0.6-10c0,0,13.5-8.8,20.1,1.9L505.2,349.5z M507.4,379.3l-0.7,3.5l-1.4-5.5l0.8-3.5
			L507.4,379.3z M476.1,232.8l-6.2-0.5l4.4-2l6.2,0.5L476.1,232.8z M483.2,361.2l-5,5l-4.4-0.9l5-5L483.2,361.2z M474.8,436.4
			l2.1,3.6l-4.3-0.3l-2.1-3.6L474.8,436.4z M479.9,464.3l3.4-1.3c-0.7,2-5.9,12.3-8.3,19.6c-1.4,4.3-1.4,7.3-1.4,7.3
			C469.4,483.1,479.9,464.3,479.9,464.3z M481.1,406.8l1.6-6.5l7.5,2.2l-1.6,6.5L481.1,406.8z M489.6,520.4l1.4,2.6l-1.8,3l-0.8-0.9
			L489.6,520.4z M490.3,385.9l-4.4-0.9l5-5l4.4,0.9L490.3,385.9z M498.3,522.3l-0.2-6.2l2.5,4.2l0.2,6.2L498.3,522.3z M499.6,575.2
			l-3.8,1.7l-3.5-2.1l3.9-1.7L499.6,575.2z M497.8,417.7l-4.6,0.2l4.7-3.4l4.6-0.2L497.8,417.7z M490.1,286.5l4.6-3.3l3.5-0.6
			l-4.6,3.3L490.1,286.5z M500.5,305.6l-2.8-2.1l1-0.7l4.5,1.7L500.5,305.6z M495.8,262.2l-2.8-2.1l1-0.7l4.5,1.7L495.8,262.2z
			 M494.4,62.8l2.3,3.6l-1.6,3.9l-2.3-3.6L494.4,62.8z M496.5,188.4c0,0-21.2,6.2-17,21.6l-12.4-8.2c0,0,1.5-23.9,20.2-22.3
			L496.5,188.4z M465.6,156.7l6.2,0.3l4.8,2.6l-6.2-0.3L465.6,156.7z M484.7,146.7l-2.7-7.3l6.2-2.6l2.7,7.3L484.7,146.7z M488.6,97
			l-1.3,6.6l-7.5-1.9l3.8-4L488.6,97z M472.8,30l7.5,1.9l-1.3,6.6l-7.5-1.9L472.8,30z M473.9,50.6l4.3,5.3l-8.3-2.7l-4.3-5.3
			L473.9,50.6z M471.5,120.7l0.5,7.8l-6.7,0.7l-0.5-7.8L471.5,120.7z M467.6,397.7l1.9,4.7l-3.8,5.7l-1.9-4.7L467.6,397.7z
			 M432.6,471.2l-4.4-5l6.1-4.9l4.4,5L432.6,471.2z M434.2,556.9L433,563l-3.2,4.4l1.2-6.1L434.2,556.9z M405,174.1l-3.6,2.3
			l-3.9-1.6l3.6-2.3L405,174.1z M402.3,141.5l4.4,3.6l1.5,3.3l-4.4-3.6L402.3,141.5z M408.7,330.3l-1.6,6.5l-7.5-2.2l1.6-6.5
			L408.7,330.3z M399.2,307.4l0.3,1.2l-3.3,3.5l0-2.9L399.2,307.4z M401,412.1l-3.9,4.8l-5,2.3l3.9-4.8L401,412.1z M393.8,450.2
			l2,3.5l-1,5.4l-2-3.5L393.8,450.2z M397.5,522.4l2.1,3.6l-4.3-0.3l-2.1-3.6L397.5,522.4z M407.1,561.7l0.9,3.5l1,0.6l-0.8,0.3
			l0.6,2.1l-7.6,1.6l-1.7-6.5L407.1,561.7z M409,612.8l2.7-5.2l-0.4,6.2l-2.7,5.2L409,612.8z M429.8,331.5l-6.8,0.2l7.1-5.1l6.8-0.2
			L429.8,331.5z M431.4,351.5l-3.3,5.2l-4.9,3.2l3.3-5.2L431.4,351.5z M424.4,383.9l-6.1,4.9l-4.4-5l6.1-4.9L424.4,383.9z
			 M419.5,402.3l-4.2-0.3l-2.1-3.5l4.2,0.3L419.5,402.3z M411.3,208.4l-0.7-6.7l7.8-0.5l0.7,6.7L411.3,208.4z M411.2,427.3l4.3-5.7
			l6.4,5.3l-4.3,5.7L411.2,427.3z M419.6,435.8l2.1,3.6l-4.3-0.3l-2.1-3.6L419.6,435.8z M420.8,475.6l-2.9,1.7l-0.3-1.2l3.2-3.4
			L420.8,475.6z M423.7,634.5l1.7,6.5l-7.6,1.6l-1.7-6.5L423.7,634.5z M425,496l-2.1-3.6l4.3,0.3l2.1,3.6L425,496z M440.2,481.3
			l2.1,3.6l-4.3-0.3l-2.1-3.6L440.2,481.3z M426.4,298.6l8.7-12c0,0,23.8,2.6,21.3,21.3l-9.3,8.8
			C447.1,316.6,441.9,295.2,426.4,298.6z M448,273l-3,6l-6.8-3.9l3-6L448,273z M437.6,127.9l3.6-2.3l3.9,1.6l-3.6,2.3L437.6,127.9z
			 M446.6,207.7l0.3-6.2l2.6-4.8l-0.3,6.2L446.6,207.7z M445.1,112.6l-3.9-1.6l3.6-2.3l3.9,1.6L445.1,112.6z M438,92l-3.9-2.5
			l3.6-3.8l3.9,2.5L438,92z M439.2,168.7l-3.6,2.3l-3.9-1.6l3.6-2.3L439.2,168.7z M434,182.4l2.6,6.2l-7.3,2.7l-2.6-6.2L434,182.4z
			 M453,243l3-6l6.8,3.9l-3,6L453,243z M446.8,382.1l3.4-5.2l4.9-3.1l-3.4,5.2L446.8,382.1z M449.8,463.1l-5.2,0.9l-1.6-4.3l5.2-0.9
			L449.8,463.1z M451.4,558.4l8.1,1.6l-1,7.1l-8.1-1.6L451.4,558.4z M461.3,663.1l3.6,2.1L461,667l-3.6-2.1L461.3,663.1z
			 M461.9,463.8l-3.1-5.3l6.3,0.5l3.1,5.3L461.9,463.8z M461.2,82.3l2.3,3.6l-1.5,3.8l-2.3-3.6L461.2,82.3z M454.3,152.2l-1.1-6.1
			l3.1,3.8l1.1,6.1L454.3,152.2z M451.7,81.5l-5.7-2.3l5.3-3.4l5.7,2.3L451.7,81.5z M451,20.5l3.6-2.9l-1.8,5.5l-3.6,2.9L451,20.5z
			 M445.6,51.9l3.9,1.6l-3.6,2.3l-3.9-1.6L445.6,51.9z M442,43.9l-8.3-0.4l0-7.1l8.3,0.4L442,43.9z M437.5,15.6l2.6,6.2l-7.3,2.7
			l-2.6-6.2L437.5,15.6z M433,73.9l3.8,1.5l-3.6,2.3l-3.8-1.5L433,73.9z M428,96.2l6.6,1.3l-1.9,7.5l-6.6-1.4L428,96.2z
			 M418.9,266.5l-4.1-5.8l7-4.4l4.1,5.8L418.9,266.5z M424.1,113.4l1.8,2.3l-1.3,3.2l-0.9-0.8L424.1,113.4z M423.7,229.8l1.9,6.2
			l-3.8,5l-1.9-6.2L423.7,229.8z M421,27.8l0.3,6.8l-4.4-2.6l-0.3-6.8L421,27.8z M418.3,157.5l0.5,6.2l-2,5.5l-0.5-6.2L418.3,157.5z
			 M406.2,39.8l6.6,1.3l-1.9,7.5l-6.6-1.4L406.2,39.8z M404.9,86.2l-3.6,2.3l-3.9-1.6l3.6-2.3L404.9,86.2z M392.3,13.7l0.4,6.2
			l-2.1,5.4l-0.4-6.2L392.3,13.7z M397.4,76.1l0,7.1l-8.3-0.4l0-7.1L397.4,76.1z M392.8,113.2l2.4,4.9l-3.7-1.6l-2.4-4.9
			L392.8,113.2z M386,126.9l6.6,1.3l-1.9,7.5l-6.6-1.4L386,126.9z M393.5,186.1l-1.9,7.5l-4-3.8l-0.6-5.1L393.5,186.1z M389.4,254
			l4,3.7l-5.9-1.9l-4-3.7L389.4,254z M382.1,460.6l4.4,5l-6.1,4.9l-4.4-5L382.1,460.6z M377.2,358.3l4.7-3.4l4.6-0.2l-4.7,3.4
			L377.2,358.3z M387.1,491.1l-1.4-5.5l0.8-3.5l1.4,5.5L387.1,491.1z M389.6,504.5l-3.3,5.2l-4.9,3.2l3.3-5.2L389.6,504.5z
			 M379.8,531.7l7.5,2.2l-1.6,6.5l-7.5-2.2L379.8,531.7z M386.1,556.8l5-2.3l-3.9,4.8l-5,2.3L386.1,556.8z M375.8,328.9l-4.1-5.8
			l7-4.4l4.1,5.8L375.8,328.9z M353.5,541l3.4-5.8l6.5,4.3l-3.4,5.8L353.5,541z M357,603l-1.8,3l-0.8-0.9l1.2-4.6L357,603z
			 M348.6,91.6l-7.3,2.7l-2.6-6.2l7.3-2.7l1.4,3.3l1.1,0.4l-0.7,0.4L348.6,91.6z M351.9,121.5l6.1,2.8l-3.6,6.9l-6.1-2.8
			L351.9,121.5z M348.9,64.1l1.9-7.5l6.6,1.3l-1.9,7.5L348.9,64.1z M343.3,268.5l4.1,5.8l-7,4.4l-4.1-5.8L343.3,268.5z M343.2,203.4
			l-5.3,4.3l2.6-8.3l5.3-4.3L343.2,203.4z M341.1,161.7l0.7,6.7l-7.8,0.5l-0.7-6.7L341.1,161.7z M343.1,230.1l-1.1,8.5
			c0,0-11.8-8.9-18.5-0.5l-0.6-10C323,228.1,336.5,219.4,343.1,230.1z M326.9,425.9l3.2,5.4l-6.4-0.5l-3.2-5.4L326.9,425.9z
			 M326.8,405l2.7-5.5l0.2,4.9l-2.7,5.5L326.8,405z M329.5,115.1l-1.8-2.3l1.3-3.2l1,0.8L329.5,115.1z M328.3,70.8l-1.4-1.2l0.8-7.1
			l2.7,3.5L328.3,70.8z M328.4,194.3l-1.9,7.5l-6.6-1.3l1.9-7.5L328.4,194.3z M324.2,520.8l2.1,3.5l-4.2-0.3l-2.1-3.5L324.2,520.8z
			 M324.3,482.2l4.3,0.3l2.1,3.6l-4.3-0.3L324.3,482.2z M330.7,322.4l3.9-4.8l5-2.3l-3.9,4.8L330.7,322.4z M337.3,341l7.6,3.2
			l-2.4,6.7l-7.6-3.2L337.3,341z M343.6,471.4l0,2.9l-3,1.8l-0.3-1.2L343.6,471.4z M342.6,382.1l5-5l4.4,0.9l-5,5L342.6,382.1z
			 M347.3,413.8l-3.3,3.5l0-2.9l3-1.8L347.3,413.8z M347.7,617.4l3.6,2.1l-3.9,1.8l-3.6-2.1L347.7,617.4z M346.6,517.3l-1-5.4
			l2.6-4.5l4.4,5L346.6,517.3z M348.6,493.6l-2.1-3.6l4.3,0.3l2.1,3.6L348.6,493.6z M350.6,482.1l-0.2-4.9l2.7-5.5l0.2,4.9
			L350.6,482.1z M352.7,178.9l3.6-2.3l3.9,1.6l-3.6,2.3L352.7,178.9z M361.6,158.6l1.8,2.3l-1.3,3.2l-1-0.8L361.6,158.6z
			 M361.2,107.4l4.4,2.6l0.3,6.8l-4.4-2.6L361.2,107.4z M364.4,221.1l4.1,5.8l-7,4.4l-4.1-5.8L364.4,221.1z M376,213.7l-3.8-1.5
			l3.6-2.3l3.8,1.5L376,213.7z M377.2,300.3l-0.7,3.5l-1.4-5.5l0.8-3.5L377.2,300.3z M370.5,159.2l-1.1-6.1l3.1,3.8l1.1,6.1
			L370.5,159.2z M371.7,82.9l-2.6,4.8l0.3-6.2l2.6-4.8L371.7,82.9z M370.2,260.8l4.1,5.8l-7,4.4l-4.1-5.8L370.2,260.8z M374.7,407.8
			l-0.8-0.1l-0.5,2.1l-7.5-2.2l1.6-6.5l7.5,2.2l-0.8,3.5L374.7,407.8z M369.7,381.1l-0.4-1.8l4.9-5.3l0.1,4.4L369.7,381.1z
			 M357.5,296.9l-3.3,3.5l0-2.9l3-1.8L357.5,296.9z M362,653.2l3.5,2.1l-3.8,1.7l-3.5-2.1L362,653.2z M364.3,602.3l-0.2-6.2l2.5,4.2
			l0.2,6.2L364.3,602.3z M364.8,509.5l-2.1-3.6l4.3,0.3l2.1,3.6L364.8,509.5z M370.9,613.7l3.6,2.1l-3.9,1.8l-3.6-2.1L370.9,613.7z
			 M372.1,440.5l-1.9-4.7l3.8-5.7l1.9,4.7L372.1,440.5z M378.9,173.4l-3.9-1.6l3.6-2.3l3.9,1.6L378.9,173.4z M380.9,57.9l-3.6,2.3
			l-3.8-1.5l3.6-2.3L380.9,57.9z M373.7,40.1l-1.9,7.5l-6.6-1.4l1.9-7.5L373.7,40.1z M369.4,1c-0.3,4.6-4.1,9.4-9.2,13.7l0.1,1.4
			l-2,5.5l-0.4-5.1C347.7,24.8,334.2,31,334.2,31l-6.3-1.7c3.1-2.2,21-11.3,31.9-19.3C366.3,5.3,369.4,1,369.4,1z M329.1,6.7
			l2.6,6.2l-7.3,2.7l-2.6-6.2L329.1,6.7z M322.4,42.4l3.6-2.9l-1.8,5.5l-3.6,2.9L322.4,42.4z M320.9,132.3l5.8,2.4l-5.4,3.5
			l-5.8-2.4L320.9,132.3z M318.7,155.1l-5.4,3.5l-5.8-2.4l5.4-3.5L318.7,155.1z M303.5,321.3l-4.4-0.9l5-5l4.4,0.9L303.5,321.3z
			 M309.7,394.2l-4.3-0.3l-2.1-3.6l4.3,0.3L309.7,394.2z M308.2,437.5l3.2,5.4l-6.4-0.5l-3.2-5.4L308.2,437.5z M309.7,552.5l1.7,6.5
			l-7.6,1.6l-1.7-6.5L309.7,552.5z M311.4,381.2l-0.3-6.8l3.8-7.8l0.3,6.8L311.4,381.2z M308.2,80.9l4-2l-1,7l-4,2L308.2,80.9z
			 M310.3,113.3l1.1,6.1l-3.1-3.8l-1.1-6.1L310.3,113.3z M299,271.8l-3.6-2.9l7.2-1.9l3.6,2.9L299,271.8z M298.1,15.4l6.8,2.2
			l-2.9,7.7l-6.8-2.2L298.1,15.4z M298.8,52.5l1.5,3.3l-4.4-3.6l-1.5-3.3L298.8,52.5z M284.7,166.2l-3.8-2.4l6.4-2.8l3.8,2.4
			L284.7,166.2z M290.7,304.6l-2.7-4.2l-0.3-6.2l2.7,4.2L290.7,304.6z M280.6,237.1l5.5,2.7l-4.9,0.2l-5.5-2.7L280.6,237.1z
			 M277.5,189.9l3.1,3.8l1.1,6.1l-3.1-3.8L277.5,189.9z M280.7,118l3.6-2.3l3.9,1.6l-3.6,2.3L280.7,118z M286.3,56l2.1,6.8l-8,2
			l-2.1-6.8L286.3,56z M280.1,97.3l1.6,8.5l-4.4-5.3l-1.6-8.5L280.1,97.3z M274.3,278.7l6.7,2.3l-3.2,7.2l-6.7-2.3L274.3,278.7z
			 M262.7,176.4l6.6,1.4l-1.9,7.5l-6.6-1.3L262.7,176.4z M256.5,145.8l5.4-3.5l5.8,2.4l-5.4,3.5L256.5,145.8z M267.1,9.9l1,0.8
			l-0.5,4.8l-1.8-2.3L267.1,9.9z M262.1,41l2.6-4.8l-0.3,6.2l-2.6,4.8L262.1,41z M262.8,116.3l-1.9,7.5l-4-3.8l-0.6-5.1L262.8,116.3
			z M261,236.5l4.9,6.1l-5,4.4L256,241L261,236.5z M250.9,92.7l2.7,3.5l-2,4.8l-1.4-1.2L250.9,92.7z M243.6,144.1l6.8,2.2l-2.9,7.7
			l-6.8-2.2L243.6,144.1z M236.5,57.6l4-2l-1,7l-4,2L236.5,57.6z M233.1,116.6l2.6-4.8l-0.3,6.2l-2.6,4.8L233.1,116.6z M247.1,190.1
			l-1.1,8.5c0,0-11.8-8.9-18.5-0.5l-0.6-10C227,188.1,240.5,179.4,247.1,190.1z M236.6,259.7l-1.8,2.9l-0.8-0.9l1.2-4.5L236.6,259.7
			z M233.7,217.9l-0.5,6.4l-5.4,3.2l0.5-6.4L233.7,217.9z M192.9,227.6l2.3,5l-4.8-3.9l-2.3-5L192.9,227.6z M184.3,187.2l1.4-6.6
			l7.5,1.9l-1.4,6.6L184.3,187.2z M191.1,252.7l4.3-1.3l-2,6.7l-4.3,1.3L191.1,252.7z M193.6,379.2l1.4,2.5l-1.8,2.9l-0.8-0.9
			L193.6,379.2z M196.9,433.9l3.6,2.1l-3.9,1.8l-3.6-2.1L196.9,433.9z M197,369.9l3-7.2l6.3,2.3l-3,7.2L197,369.9z M211.1,353.7
			l3.4,3.1l-4.2,3.2L207,357L211.1,353.7z M209,271l2-6.8l4.3-1.3l-2,6.7L209,271z M203.9,171.2l-6.1,1.1l3.8-3.1l6.1-1.1
			L203.9,171.2z M203,294l-0.7,6.8l-3.9-3.2l0.7-6.8L203,294z M203.3,469.6l3.2-4.4l-1.2,6.1l-3.2,4.4L203.3,469.6z M204.8,395.5
			l3.9-1.8l3.6,2.1l-3.9,1.8L204.8,395.5z M210.9,379.2l3.9-1.8l3.6,2.1l-3.9,1.8L210.9,379.2z M215.2,292.4l-1.7-6.5l7.6-1.6
			l1.7,6.5L215.2,292.4z M223.9,321.5l3.6,2.1l-3.9,1.8l-3.6-2.1L223.9,321.5z M225.3,255.7l1,3.5l-3.8-4.2l-1-3.4L225.3,255.7z
			 M219.3,70.3l2.3,3.6l-1.5,3.8l-2.3-3.6L219.3,70.3z M216.3,38.5l-6.7,0.7l-0.5-7.8l6.7-0.7L216.3,38.5z M210.7,0.7l4.8,2.6
			L209.3,3l-4.8-2.6L210.7,0.7z M211.2,106.7l4.3,5.3l-8.3-2.6l-4.3-5.3L211.2,106.7z M209.7,123.4l-1.4,6.6l-7.5-1.9l1.3-6.6
			L209.7,123.4z M197.7,62.3l-5.1,0.6l1.3-6.6l7.5,1.9L197.7,62.3z M196.5,13.2l2.7,7.3l-6.2,2.6l-2.7-7.3L196.5,13.2z M186,89.7
			l2.3,3.6l-1.6,3.9l-2.3-3.6L186,89.7z M182,44.8l2.3,3.6l-1.6,3.9l-2.3-3.6L182,44.8z M180.7,236.2c-2.6,1.2-11.4,1.6-11.4,1.6
			l-12.2-0.2l-6.4,0.9c0.4,1,0.9,2,1.7,2.7c1.8,1.4,8.3,6.9,11.7,8.8c3.4,1.8,6.8,5.8,6.8,5.8l-1.4,3.3c0,0,0,0,0,0
			c-0.1,0.1-3.5,1.2-10.1-0.1c-5.8-1.1-13-1.2-15.9-0.4c0.2,0.6,0.5,1.2,1,1.7c1.1,1.2,2.7,2.5,4.2,3.6c2.5,0.5,5,1.3,7,2.1
			c4.3,1.7,5,2.9,5,2.9l-0.3,0.6c0,0,0.1,0,0.1,0l-1.6,3.3c0,0-3.8,0.1-8.3-3.2c-1.4-1-2.6-1.9-3.6-2.7c-2.2-0.6-6-0.3-7.3-0.3
			c0.4,1,1,2.3,1.9,3.1c0.4,0.3,1,0.9,1.8,1.5l1.9-3.6l-0.3,4.8c1.9,0.6,3.8,1.4,5.1,1.9c3.1,1.2,3.9,3,3.9,3l-1.4,3.6
			c0,0-3.2-0.5-5.9-2.5c-0.9-0.7-2-1.5-3.1-2.3l-1,1.8c0.6,0.4,1.2,0.7,2,0.9c-0.1,1.1-0.5,3.7-0.5,3.7s-2.9-1.3-5.3-3.6
			c-2.4-2.3-1.9-2.8-1.9-2.8l1.3-3.5c0,0,0,0,0,0c0.3-0.2,0.6-0.4,1-0.5c-0.1-0.1-0.1-0.1-0.2-0.2c-1-1.5-1.5-3.5-1.5-3.5l1.5-3.2
			c0,0,0,0,0,0c0.2-0.7,0.7-1.5,2-1.9c0.4-0.1,1-0.2,1.6-0.2c-0.1-0.2-0.3-0.3-0.4-0.5c-1.3-1.7-1.2-3-1.2-3l1.9-3.7c0,0,0,0,0,0.1
			c0.2-0.3,0.5-0.5,0.8-0.6c1.6-0.4,5-1.4,9.2-0.8c4.3,0.6,9,1.2,9,1.2s3.1,0.3,4.3,0.3c-1.1-0.9-2.4-1.9-3.7-2.6
			c-3.7-2-10-7.3-10-7.3s-4.2-3.5-4.1-5.9s1.5-3.9,1.5-3.9s0,0,0,0c0.3-0.6,1-1.1,2.3-1.4c3.7-0.8,10.5-0.6,10.5-0.6l12.6,0.1
			c0,0,5.5-0.7,7.1-1.8c-0.2-1.2-0.6-3.2-1.6-5.7c-2.9-7.1-8.9-17.3-9.8-19.3l3.8,1.8c0,0,12.2,18.9,7.7,24.4c0,0,0,0,0,0
			C182.5,234.7,182,235.7,180.7,236.2z M181.4,422l-0.4,6.2l-2.7,5.2l0.4-6.2L181.4,422z M176.7,275.8l-0.6,6.2l-2.8,5.1l0.6-6.2
			L176.7,275.8z M172.7,338.3l-1,7.1l-8.1-1.6l1-7.1L172.7,338.3z M121.1,139.6l6.1-1.1l-3.8,3.1l-6.1,1.1L121.1,139.6z
			 M117.4,120.8l0.8-1l4.8,0.5l-2.3,1.8L117.4,120.8z M131.7,189l-3.8,4l-5.1,0.6l1.3-6.6L131.7,189z M129.4,98l2.8-6.1l6.9,3.6
			l-2.8,6.1L129.4,98z M125.8,169.2l-2.3-3.6l1.6-3.9l2.3,3.6L125.8,169.2z M125.8,214.5l4.8,2.6l-6.2-0.3l-4.8-2.6L125.8,214.5z
			 M132.2,246.4l5.9-3.5l-3.8,7.8l-5.9,3.5L132.2,246.4z M132.2,364l3.9,3.2l-0.7,6.8l-3.9-3.2L132.2,364z M136.2,414.6l0.2,6.2
			l-2.5-4.2l-0.2-6.2L136.2,414.6z M136.8,499.8l2.7-5.2l-0.4,6.2l-2.7,5.2L136.8,499.8z M136.6,429.7l3.9-1.8l3.6,2.1l-3.9,1.8
			L136.6,429.7z M143,345.7l1.2-6.1l3.2-4.4l-1.2,6.1L143,345.7z M145.1,304.2l3-7.2l6.3,2.3l-3,7.2L145.1,304.2z M155.4,315.8
			l3.5,2.1l-3.8,1.7l-3.5-2.1L155.4,315.8z M140.1,128.9l2.4-5.8l3.5,5.4l-2.4,5.8L140.1,128.9z M161.9,202.4l-2.2,6.8l-7.7-2.9
			l2.2-6.8L161.9,202.4z M160.6,137l2.4-5.8l3.5,5.4l-2.4,5.8L160.6,137z M153.7,193.4l-3.5-5.4l2.4-5.8l3.5,5.4L153.7,193.4z
			 M171.3,88.7l-4.8-0.5l2.3-1.8l3.2,1.3L171.3,88.7z M176.2,108l0.5,7.8l-6.7,0.7l-0.5-7.8L176.2,108z M171.2,158.7l2.8,6.4
			l-2.4,3.8l-2.8-6.4L171.2,158.7z M181.2,70.9l-1.6,3.9l-2.3-3.6l1.6-3.9L181.2,70.9z M176.6,10.7l2.3,3.6l-1.6,3.9l-2.3-3.6
			L176.6,10.7z M171.6,31.1l5.5,2l-6.2,0.5l-5.5-2L171.6,31.1z M152.9,43.1l3.3-1.5l-3.6,4.4l-3.3,1.5L152.9,43.1z M135,4.8l2.3,3.6
			l-1.6,3.9l-2.3-3.6L135,4.8z M143.7,59.3l-1.4,6.6l-7.5-1.9l1.3-6.6L143.7,59.3z M140.2,72.6c0,0,7-4.2,10-4.7
			c3-0.4,4.8,1.8,4.8,1.8c-0.1,0-0.2,0-0.3-0.1c3.1,1.3,5.7,5.3,7.8,9.6l2.3-1.9l6.1-1.1l-3.8,3.1l-4.2,0.8c2.7,5.9,4.3,12,4.3,12
			l-1.6,3.4c-0.9-2-4.2-12.9-7.6-19.8c-1.6-3.3-3.3-5.3-3.8-6c-2.3,0.2-6.4,2.2-6.4,2.2l-9.6,6.6c0,0-5.1,3.7-8.5,5
			c-3.4,1.3-4.6-1.6-4.6-1.6L131,79L140.2,72.6z M123.6,24l3.2,1.3l-0.8,0.9l-4.7-0.5L123.6,24z M126,54.7l-1.6,3.7l-4.9,2.4
			l1.6-3.7L126,54.7z M118.1,1.2l2.3,3.6l-1.6,3.9L116.5,5L118.1,1.2z M117.9,84.3l6.8-0.3l-2.6,4.4l-6.8,0.3L117.9,84.3z M83.2,405
			l-5.9,2.6l-5.4-3.2l5.9-2.6L83.2,405z M78.5,358.2l2.5,4.2l0.2,6.2l-2.5-4.2L78.5,358.2z M82.9,385.4l5.9-2.6l5.4,3.2l-5.9,2.6
			L82.9,385.4z M81.7,336.8l2-6.8l4.3-1.3l-2,6.7L81.7,336.8z M94.4,487.3l0.2,6.2l-2.5-4.2l-0.2-6.2L94.4,487.3z M94.1,247.1l1.8-3
			l0.8,0.9l-1.2,4.6L94.1,247.1z M93.7,138.6l2,4l-7-1l-2-4L93.7,138.6z M84.6,77.9l6.2,0.3l4.8,2.6l-6.2-0.3L84.6,77.9z
			 M98.7,500.7l3.6,2.1l-3.9,1.8l-3.6-2.1L98.7,500.7z M99.7,367l-1.4-2.6l1.8-3l0.8,0.9L99.7,367z M108.4,172.5l-8.5,1.6l5.3-4.4
			l8.5-1.6L108.4,172.5z M108.8,198.3l-1.2,1.4l-7.1-0.8l3.5-2.7L108.8,198.3z M105.4,15.3l7.5,1.9l-1.4,6.6l-7.5-1.9L105.4,15.3z
			 M96,111.3l-2.7-7.3l3.3-1.4l0.4-1.1l0.4,0.7l2-0.9l2.7,7.3L96,111.3z M96.1,8.3l3.8,3.6l-2.5,3.9l-3.8-3.6L96.1,8.3z M94,45
			l2.3,3.6l-1.6,3.9l-2.3-3.6L94,45z M91.1,52.4l-0.4,8.3l-7.1,0l0.4-8.3L91.1,52.4z M83.4,13l2.3,3.6l-1.5,3.8l-2.3-3.6L83.4,13z
			 M83.2,263.7l6.4,3.2l-4,7.2l-6.4-3.2L83.2,263.7z M78.6,121.5l-1.2,1.4l-7.1-0.8l3.5-2.7L78.6,121.5z M72,101l-7.5-1.9l1.3-6.6
			l7.5,1.9L72,101z M65.7,69l2.3,3.6l-1.5,3.8l-2.3-3.6L65.7,69z M70.7,161.4l2,8l-6.8,2.1l-2-8L70.7,161.4z M70.5,210.4l2,4l-7-1
			l-2-4L70.5,210.4z M60.1,153.9l-3.3,1.5l3.6-4.4l3.3-1.5L60.1,153.9z M61.4,0.4L63.7,4l-1.6,3.9l-2.3-3.6L61.4,0.4z M55.2,45.6
			l-7.5-1.9L49,37l7.5,1.9L55.2,45.6z M55.5,78.1l-1.4,6.6l-7.5-1.9l1.4-6.6L55.5,78.1z M44.6,7.9l7.1,0l-0.4,8.3l-7.1,0L44.6,7.9z
			 M35.7,28.9l6.8-0.3l-2.6,4.4l-6.8,0.3L35.7,28.9z M29.6,9.7l2.7,7.3l-6.2,2.6l-2.7-7.3L29.6,9.7z M5.1,25.3l-1.9-4l7,1l2,4
			L5.1,25.3z M6.3,29.5c8,2.6,13.8,16.8,17.1,27.9l4.3-0.2l5.4,2.1L27,59.6l-3.3-1.3c2.1,7.1,3.1,12.6,3.1,12.6l-3.1,5.7
			c-1.3-3.5-5.8-23.2-10.9-35.7C9.7,33.6,6.3,29.5,6.3,29.5z M23.2,151.8l2.2-6.8l7.7,2.9l-2.2,6.8L23.2,151.8z M23.3,182.3
			l-2.3,1.8l-3.2-1.3l0.8-1L23.3,182.3z M29.6,91.5l-6.2,0.5l-5.5-2l6.2-0.5L29.6,91.5z M12.8,162.5l-3.6,4.4L6,168.4l3.6-4.4
			L12.8,162.5z M6.9,63l0.8-1l4.8,0.5l-2.3,1.8L6.9,63z M2.7,141.2l4.8,0.5l-2.3,1.8l-3.2-1.3L2.7,141.2z M12.2,213.2l-7.7-2.9
			l2.2-6.8l7.7,2.9L12.2,213.2z M14.6,120.8l6.2-2.6l2.7,7.3l-6.2,2.6L14.6,120.8z M14.1,303.3l2-6.8l4.3-1.3l-2,6.7L14.1,303.3z
			 M21.5,531.5l6.7,2.3L25,541l-6.7-2.3L21.5,531.5z M27,663l-6.3-2.3l3-7.2l6.3,2.3L27,663z M30.9,470.2l-7.6,1.6l-1.7-6.5l7.6-1.6
			l0.9,3.5l1,0.6l-0.7,0.3L30.9,470.2z M28.4,389.9l-5.4-3.2l5.9-2.6l5.4,3.2L28.4,389.9z M30.5,247l-6.4-3.2l4-7.2l6.4,3.2
			L30.5,247z M37.6,439.6l-0.3-6.2l2.7,4.2l0.3,6.2L37.6,439.6z M29.8,121l-2.7-14.6c0,0,18.2-15.5,30.1-0.9v12.8
			C57.2,118.3,38,107.4,29.8,121z M48.9,187.7l-4.8-2.6l6.2,0.3l4.8,2.6L48.9,187.7z M54.2,254.7l-1.2,4.6l-1.4-2.6l1.8-3
			L54.2,254.7z M50.3,127.5l-2.9-3.6l5.5,1.8l2.9,3.6L50.3,127.5z M44,283.9l3.2-4.4l-1.2,6.1l-3.2,4.4L44,283.9z M45,408.1l7.2-1.9
			l3.6,2.9l-7.2,1.8L45,408.1z M55,465l-3.2,4.4l1.2-6.1l3.2-4.4L55,465z M54.7,364.8l-3.6-2.1L55,361l3.6,2.1L54.7,364.8z
			 M58.5,310.2l-1.1-7l8.2-0.8l1.1,7L58.5,310.2z M69.3,244.2l3.8,4.2l1,3.4l-3.8-4.2L69.3,244.2z M75.1,508.3l-3.6-2.1l3.9-1.8
			l3.6,2.1L75.1,508.3z M80.4,469.1l-8.1-1.6l1-7.1l8.1,1.6L80.4,469.1z M83,493l-0.8-0.9l1.2-4.6l1.4,2.6L83,493z M89.5,544
			l-3.5-2.1l3.9-1.7l3.5,2.1L89.5,544z M99,587l-5.4-3.2l5.9-2.6l5.4,3.2L99,587z M104.7,297l-3.9,2.3l2.6-5.2l3.9-2.3L104.7,297z
			 M107.6,261.3l7.6-1.6l1.7,6.5l-7.6,1.6L107.6,261.3z M117,435.6l-3.6-2.1l3.9-1.8l3.6,2.1L117,435.6z M122.1,346.5l-7.6,1.6
			l-1.7-6.5l7.6-1.6l0.9,3.5l1,0.6l-0.7,0.3L122.1,346.5z M124.8,420.3l-0.8-0.9l1.2-4.6l1.4,2.6L124.8,420.3z M127.8,469.2l3.9-1.7
			l3.5,2.1l-3.8,1.7L127.8,469.2z M139.3,701.3L133,699l3-7.2l6.3,2.3L139.3,701.3z M149,641l-3.6-2.1l3.9-1.8l3.6,2.1L149,641z
			 M145.6,529.6l-1.7-6.5l7.6-1.6l1.7,6.5L145.6,529.6z M150.9,394.1l3-7.2l6.3,2.3l-3,7.2L150.9,394.1z M168.9,596.2l-7.6,1.6
			l-1.7-6.5l7.6-1.6l0.9,3.5l1,0.6l-0.7,0.3L168.9,596.2z M169,407.2l-1-3.4l3.8,4.2l1,3.5L169,407.2z M171.1,349l3.9-1.8l3.6,2.1
			l-3.9,1.8L171.1,349z M182,554.2l-6.3-2.3l3-7.2l6.3,2.3L182,554.2z M193,591l-3.2,4.4l1.2-6.1l3.2-4.4L193,591z M187.4,457
			l-1.7-6.5l7.6-1.6l1.7,6.5L187.4,457z M199,513l-3.6-2.1l3.9-1.8l3.6,2.1L199,513z M218.4,595.1l-8.1-1.6l1-7.1l8.1,1.6
			L218.4,595.1z M216.3,498.5l-12.4-8.2c0,0,1.5-23.9,20.2-22.3l9.2,8.9C233.4,477,212.2,483.1,216.3,498.5z M233.3,539.3l-3.6-2.1
			l3.9-1.8l3.6,2.1L233.3,539.3z M235.1,294.1l-3.9,2.3l2.6-5.2l3.9-2.3L235.1,294.1z M241.2,524l-0.8-0.9l1.2-4.6l1.4,2.6
			L241.2,524z M241.4,324.6l8.7-12c0,0,23.8,2.6,21.3,21.3l-9.3,8.8C262.1,342.6,256.9,321.2,241.4,324.6z M252.2,436.2l-4.4-5
			l6.1-4.9l4.4,5L252.2,436.2z M257.8,450.9l-2.7,5.5l-0.2-4.9l2.7-5.5L257.8,450.9z M247.7,575l-3.5-2.1l3.9-1.7l3.5,2.1L247.7,575
			z M250.3,520.3l-0.2-6.2l2.5,4.2l0.2,6.2L250.3,520.3z M256.5,535.5l-3.6-2.1l3.9-1.8l3.6,2.1L256.5,535.5z M262.1,365.4l3.9-4.8
			l5-2.3l-3.9,4.8L262.1,365.4z M273.6,398.6l3.2,5.4l-6.4-0.5l-3.2-5.4L273.6,398.6z M269.7,624.1l7.6-1.6l1.7,6.5l-7.6,1.6
			L269.7,624.1z M276.7,738.9l-3.6-2.1l3.9-1.8l3.6,2.1L276.7,738.9z M277.5,431.3l-1.6-4.2l6.9,1.6l1.6,4.2L277.5,431.3z
			 M285.1,479.9l6.1-4.9l4.4,5l-6.1,4.9L285.1,479.9z M297.8,525.6l-0.4,6.2l-2.7,5.2l0.4-6.2L297.8,525.6z M503.5,750.5
			c-5.3,4.2-11,7.4-17.3,9.2c-1.7,2.8-5.3,2.8-7.5,1c-1.4-0.4-2.6-1.4-3.2-2.7c-0.7,0.6-1.4,1-2.2,1.4c-3.1,4.8-8.4,5.7-14.2,4.7
			c-4.8-0.8-8.7-3.8-12.8-6.2c-5.7,1-11.6,1.3-17.3,0.5c-3.6,0.3-7.3,0.6-11,0.6c-0.9,0-1.8-0.2-2.4-0.6c-2.4,0.3-4.8,0.8-7.2,1.4
			c-1.5,0.4-2.9,1-4.4,1.4c-0.1,0.1-0.3,0.2-0.5,0.3c-1.1,0.7-1.6,1.1-2.9,1.4c-3.2,0.7-7.1,0.1-10.4,0.1c-3.3,0-6.5,0-9.8-0.1
			c-4.2-0.1-8.4-0.2-12.5-0.4c-4.8,0.3-9.5,0.5-14.3,0.4c-6.3-0.1-13.7-0.3-20.1-2.4c-5.2,0.3-10.6,0.1-15.7-0.4
			c-4.8,0.3-9.7,0.4-14.5,0c-0.8,0.7-1.9,1.1-3.4,1c-3.5-0.4-5.8-1.3-8.5-3.5c-2.8-2.2-1.3-6.1,1-7.9c1.5-1.1,3.1-2.1,4.7-3
			c0.2-1.9,1.3-3.7,3.5-4.5c3.4-1.1,6.7-2,10.3-2.2c1.5-0.1,2.6,0.5,3.5,1.4c6.2-0.4,12.3-0.9,18.5-0.4c2.1,0.2,3.7,1.5,4.5,3.1
			c1.2-0.1,2.3-0.1,3.5-0.1c1.1,0,1.9,0.2,2.6,0.6c9.8-1.2,19.7-1.3,29.6-1.1c-0.2-2.5,1.5-5.2,4.8-5.5c3.8-0.4,11.5-0.9,18,0.4
			c7.7,0,15.4,0,23-0.2c8-0.6,16-0.3,24-0.3c2.2,0,3.6,1.1,4.3,2.6c8.6-1.1,17.4-1.6,25.8,0.9c1.3-0.2,2.6-0.3,3.9-0.5
			c2.7-0.3,4.2,1.2,4.6,3.1c6.1-0.4,12.3-1.4,18.4-2.1C504.2,741.5,506.8,747.9,503.5,750.5z M504.5,537.5l-3.6-2.1l3.9-1.8l3.6,2.1
			L504.5,537.5z M499.9,256.7c-0.9-0.6-1.4-1.4-1.7-2.1v0c-4.3-6.8,6.2-25.6,6.2-25.6l1.7-0.7l-6.4-4.2l-2.7-6.3l7.3,4.7l2.4,5.5
			l1.2-0.5c-0.7,2-5.9,12.3-8.3,19.6c-0.7,2.3-1.1,4.2-1.3,5.5c1.8,1.4,6.1,2.9,6.1,2.9l11.5,1.9c0,0,6.2,0.9,9.6,2.3
			c3.4,1.4,2.2,4.4,2.2,4.4l-6.4-2.2l-11.1-1.8C510.3,260.3,502.3,258.5,499.9,256.7z M512.5,389.9l-0.3-1.2l3.2-3.4l0,2.9
			L512.5,389.9z M517.8,279.8l-6.7-4.9l3.9-6l6.7,4.9L517.8,279.8z M522.5,312.6l5.9,1.9l4,3.7l-5.9-1.9L522.5,312.6z M533,609
			l-3.6-2.1l3.9-1.8l3.6,2.1L533,609z M535,455l-6.7-2.3l3.2-7.2l6.7,2.3L535,455z M534.2,183.6l6.1,1.3l4.7,3.4l-6.1-1.3
			L534.2,183.6z M546.7,257.6l1.8,4.2l-4.9-3.2l-1.8-4.2L546.7,257.6z M545.3,533.8l-2.7,5.2l0.4-6.2l2.7-5.2L545.3,533.8z
			 M545.2,467.3l-0.3-6.2l2.7,4.2l0.3,6.2L545.2,467.3z M544.8,388.1l3-4.3l4.2,1.9l-3,4.3L544.8,388.1z M551.8,562.6l-1.7-6.5
			l7.6-1.6l1.7,6.5L551.8,562.6z M556.2,438.6l-3.6-2.9l7.2-1.9l3.6,2.9L556.2,438.6z M571,261.4l-6.7-2.6l4.1-1.7l4.1,3.2
			L571,261.4z M576.3,193.5l6.7,1.5l-3.6,3.5l-6.7-1.5L576.3,193.5z M578.7,402.6l6.7,4.9l-3.9,6l-6.7-4.9L578.7,402.6z M591,571
			l-6.3-2.3l3-7.2l6.3,2.3L591,571z M594.2,506.9c0,0-11.8-8.9-18.5-0.5l-0.6-10c0,0,13.5-8.8,20.1,1.9L594.2,506.9z M597.7,387.7
			l-2.8-2.1l1-0.7l4.5,1.7L597.7,387.7z M596.9,306.4l-2.7-6.3l7.3,4.7l2.7,6.3L596.9,306.4z M602.5,38.4l1.2-1.4l7.1,0.8l-3.5,2.7
			L602.5,38.4z M609.1,58.9l7.5,1.9l-1.3,6.6l-7.5-1.9L609.1,58.9z M614.8,324l0.7,7.8l-6.6,0.9l-0.7-7.8L614.8,324z M615,362
			l-6.7-4.9l3.9-6l6.7,4.9L615,362z M623.7,398.5l-4-3.7l5.9,1.9l4,3.7L623.7,398.5z M624.2,299.4l-4.8-3.3l6.1,1.2l4.8,3.3
			L624.2,299.4z M624,230.3l-0.8-4.4l6.5,2.8l0.8,4.4L624,230.3z M637.5,267l4.7,3.4l-6.1-1.3l-4.7-3.4L637.5,267z M632.1,423.2
			l6.5,2.8l0.8,4.4l-6.5-2.8L632.1,423.2z M634.7,476.6l3.2-4.4l-1.2,6.1l-3.2,4.4L634.7,476.6z M641,635.4l-6.7-2.4l3.1-7.7
			l6.7,2.4L641,635.4z M643.2,608.9l-3.7-4l5.8,2.3l3.7,4L643.2,608.9z M645.9,584l-0.8,0.9l-0.2-0.8l-2.2,0.1l-0.1-7.8l6.7-0.4
			l0.1,7.8L645.9,584z M647.7,533.4l-6.3-2.3l3-7.2l6.3,2.3L647.7,533.4z M651.5,387.2l-7.1,0.2l0.2-8.3l7.1-0.2L651.5,387.2z
			 M655.1,473.7l8.1,1.6l-1,7.1l-8.1-1.6L655.1,473.7z M665.2,488.1l-3.6-2.1l3.9-1.8l3.6,2.1L665.2,488.1z M668.3,343.5l-6.7-2.6
			l4.1-1.7l4.1,3.2L668.3,343.5z M669.9,295.7l-1.3-4l2.5-3.2l1.3,4L669.9,295.7z M673.4,360.1l6.5,2.8l0.8,4.4l-6.5-2.8
			L673.4,360.1z M682.7,395.9l8.6,0.7l-6.2,2.8l-8.6-0.7L682.7,395.9z M683.9,521.6l-0.8-0.9l1.2-4.5l1.4,2.5L683.9,521.6z
			 M685,442.6l5.9,1.9l4,3.7l-5.9-1.9L685,442.6z M697,641l-6.3-2.3l3-7.2l6.3,2.3L697,641z M697.6,493.9l4.2-3.2l3.4,3.1L701,497
			L697.6,493.9z M705,518.3l-3.6-2.1l3.9-1.8l3.6,2.1L705,518.3z M727,559l-6.3-2.3l3-7.2l6.3,2.3L727,559z M742.9,510.2l-7.6,1.6
			l-1.7-6.5l7.6-1.6l0.9,3.5l1,0.6l-0.8,0.3L742.9,510.2z M747.8,463.9c0-0.1,0-0.2,0-0.3C741.3,476.4,714,489,714,489l-6.3-1.7
			c3.1-2.2,21-11.3,31.9-19.3c3.6-2.6,6.1-5.1,7.7-6.8c-1.5-3.9-5.5-9.4-5.5-9.4l-14.4-14.6c0,0-7.9-7.7-11.2-13.2
			c-3.3-5.5,1.3-8.5,1.3-8.5l5.4,7.6l2.2-2.9l1.9,6.2l-0.7,0.9l11.8,11.9c0,0,9.5,10.8,11.1,15.8
			C751.1,460.1,747.8,463.9,747.8,463.9z M747,412.6l-1-7l3.3-3l1,7L747,412.6z M746.7,385l-1.9-6.2l3.8-5l1.9,6.2L746.7,385z
			 M752.3,247.9l2.5-3.3l1.3,4.1l-2.5,3.3L752.3,247.9z M754.5,433.5l3-6l6.8,3.9l-3,6L754.5,433.5z M767,505l-3.2,4.4l1.2-6.1
			l3.2-4.4L767,505z M767.8,335.1l-4.5-1.7l2.7-1.1l2.8,2.1L767.8,335.1z M766.2,325l-6.2-0.5l4.4-2l6.2,0.5L766.2,325z
			 M777.6,423.3l-6.2-0.5l4.4-2l6.2,0.5L777.6,423.3z M780.5,347.3l-1.3-4.1l2.5-3.3l1.3,4.1L780.5,347.3z M792.4,509.1l-8.1-1.6
			l1-7.1l8.1,1.6L792.4,509.1z M795.8,378.6l-3,6l-6.8-3.9l3-6L795.8,378.6z M794.6,265.3l-2.5,3.3l-1.3-4.1l2.5-3.3L794.6,265.3z
			 M796,26.8l1.1,0.6l0.2,4.8l-2.1-2L796,26.8z"/>
		<path class="st0" d="M139.8,275.2c0.6,0.8,1.3,1.5,2.3,2.2l0.1-2C141.3,275.2,140.4,275.2,139.8,275.2z"/>
		<polygon class="st1" points="120.7,122.2 123,120.4 118.2,119.9 117.4,120.8 		"/>
		<polygon class="st1" points="10.1,64.3 12.4,62.5 7.6,62 6.9,63 		"/>
		<polygon class="st1" points="5.1,143.5 7.5,141.7 2.7,141.2 1.9,142.2 		"/>
		<polygon class="st1" points="21,184.1 23.3,182.3 18.5,181.8 17.8,182.8 		"/>
		<polygon class="st2" points="97,101.5 96.5,102.6 97.4,102.2 		"/>
		<polygon class="st3" points="90.8,78.2 84.6,77.9 89.4,80.5 95.6,80.8 		"/>
		<polygon class="st3" points="55.1,188 50.3,185.4 44.1,185.2 48.9,187.7 		"/>
		<polygon class="st4" points="186.7,97.2 188.3,93.3 186,89.7 184.4,93.6 		"/>
		<polygon class="st5" points="47.4,123.9 50.3,127.5 55.8,129.2 53,125.7 		"/>
		<polygon class="st4" points="6,168.4 9.2,166.9 12.8,162.5 9.5,164 		"/>
		<polygon class="st4" points="56.8,155.4 60.1,153.9 63.6,149.5 60.4,151 		"/>
		<polygon class="st4" points="156.2,41.6 152.9,43.1 149.4,47.5 152.7,46 		"/>
		<polygon class="st3" points="179.7,74.8 181.2,70.9 178.9,67.3 177.3,71.2 		"/>
		<path class="st6" d="M167.1,79.4l3.8-3.1l-6.1,1.1l-2.3,1.9c0.1,0.3,0.3,0.6,0.4,0.8L167.1,79.4z"/>
		<polygon class="st6" points="29.6,91.5 24.1,89.5 17.9,90 23.4,91.9 		"/>
		<polygon class="st6" points="31,154.7 33.2,148 25.4,145 23.2,151.8 		"/>
		<polygon class="st6" points="51.8,7.9 44.6,7.9 44.2,16.2 51.3,16.2 		"/>
		<polygon class="st6" points="90.7,60.7 91.1,52.4 84,52.4 83.6,60.7 		"/>
		<polygon class="st2" points="49,37 47.6,43.6 55.2,45.6 56.5,39 		"/>
		<polygon class="st2" points="48,76.2 46.7,82.7 54.2,84.7 55.5,78.1 		"/>
		<polygon class="st2" points="136.1,57.3 134.8,63.9 142.3,65.9 143.7,59.3 		"/>
		<polygon class="st4" points="64.5,99.1 72,101 73.4,94.4 65.8,92.5 		"/>
		<polygon class="st5" points="176.2,108 169.5,108.7 170,116.5 176.7,115.8 		"/>
		<polygon class="st4" points="104.1,21.8 111.6,23.8 113,17.2 105.4,15.3 		"/>
		<polygon class="st4" points="185.6,180.6 184.3,187.2 191.8,189.1 193.2,182.6 		"/>
		<polygon class="st2" points="215.8,30.8 209.1,31.5 209.6,39.3 216.3,38.5 		"/>
		<polygon class="st3" points="70.7,161.4 63.9,163.5 65.9,171.5 72.7,169.5 		"/>
		<polygon class="st6" points="193.9,56.4 192.6,62.9 197.7,62.3 201.5,58.3 		"/>
		<polygon class="st6" points="124.1,187.1 122.8,193.6 127.9,193 131.7,189 		"/>
		<polygon class="st3" points="0,75.7 0,80.3 3.5,76.6 		"/>
		<polygon class="st6" points="161.9,202.4 154.1,199.5 151.9,206.3 159.7,209.2 		"/>
		<polygon class="st2" points="4.4,210.2 12.2,213.2 14.3,206.4 6.6,203.4 		"/>
		<polygon class="st3" points="97.4,102.2 99.3,105 97.7,108.8 95.4,105.3 96.5,102.6 93.3,104 96,111.3 102.1,108.6 99.4,101.3 		
			"/>
		<polygon class="st3" points="97.7,108.8 99.3,105 97.4,102.2 96.5,102.6 95.4,105.3 		"/>
		<polygon class="st3" points="190.3,15.8 193,23.1 199.2,20.5 196.5,13.2 		"/>
		<polygon class="st3" points="26.2,19.7 32.3,17 29.6,9.7 23.5,12.4 		"/>
		<polygon class="st3" points="23.4,125.5 20.7,118.1 14.6,120.8 17.3,128.1 		"/>
		<polygon class="st2" points="202.2,121.4 200.8,128 208.4,130 209.7,123.4 		"/>
		<polygon class="st5" points="2.9,103.2 0,102.3 0,106.2 7.2,108.5 		"/>
		<polygon class="st1" points="70.3,122.2 77.5,123 78.6,121.5 73.8,119.5 		"/>
		<polygon class="st1" points="108.8,198.3 104,196.3 100.5,198.9 107.7,199.7 		"/>
		<polygon class="st2" points="163,131.2 160.6,137 164.1,142.4 166.4,136.6 		"/>
		<polygon class="st2" points="150.2,187.9 153.7,193.4 156,187.6 152.6,182.2 		"/>
		<polygon class="st4" points="142.5,123.2 140.1,128.9 143.6,134.4 146,128.6 		"/>
		<polygon class="st5" points="207.2,109.3 215.5,112 211.2,106.7 202.9,104 		"/>
		<polygon class="st2" points="88.7,0 84.6,0 87.1,3.9 		"/>
		<polygon class="st3" points="97.4,15.8 99.9,11.9 96.1,8.3 93.6,12.1 		"/>
		<polygon class="st6" points="201.6,169.3 197.8,172.4 203.9,171.2 207.6,168.1 		"/>
		<polygon class="st1" points="172.1,87.8 168.8,86.4 166.5,88.2 171.3,88.7 		"/>
		<polygon class="st3" points="118.8,8.7 120.4,4.8 118.1,1.2 116.5,5 		"/>
		<polygon class="st6" points="99.9,174.1 108.4,172.5 113.7,168.2 105.1,169.8 		"/>
		<polygon class="st2" points="121.3,25.7 126,26.2 126.7,25.3 123.6,24 		"/>
		<polygon class="st2" points="119.4,60.8 124.3,58.4 126,54.7 121.1,57.1 		"/>
		<path class="st4" d="M27,59.6l6.2-0.4l-5.4-2.1l-4.3,0.2c0.1,0.3,0.2,0.6,0.3,0.9L27,59.6z"/>
		<polygon class="st6" points="42.5,28.6 35.7,28.9 33.1,33.3 39.9,32.9 		"/>
		<polygon class="st2" points="132.2,91.9 129.4,98 136.3,101.6 139.1,95.5 		"/>
		<polygon class="st6" points="115.3,88.7 122.1,88.4 124.7,84 117.9,84.3 		"/>
		<polygon class="st5" points="1.5,43.6 0,43.4 0,47.2 3.5,47.7 		"/>
		<polygon class="st5" points="12,26.3 10.1,22.2 3.1,21.3 5.1,25.3 		"/>
		<polygon class="st5" points="174.1,165.2 171.2,158.7 168.8,162.5 171.6,169 		"/>
		<polygon class="st5" points="93.7,138.6 86.8,137.6 88.7,141.6 95.7,142.6 		"/>
		<polygon class="st5" points="65.5,213.4 72.4,214.4 70.5,210.4 63.5,209.4 		"/>
		<polygon class="st2" points="0,2 0,2 0,2 		"/>
		<polygon class="st2" points="85.6,16.6 83.4,13 81.8,16.8 84.1,20.4 		"/>
		<polygon class="st3" points="215.5,3.3 210.7,0.7 204.5,0.4 209.3,3 		"/>
		<polygon class="st3" points="124.4,216.8 130.6,217.1 125.8,214.5 119.6,214.2 		"/>
		<polygon class="st4" points="135.8,12.3 137.3,8.4 135,4.8 133.5,8.7 		"/>
		<polygon class="st4" points="177.3,18.2 178.9,14.3 176.6,10.7 175,14.6 		"/>
		<polygon class="st4" points="125.1,161.7 123.5,165.5 125.8,169.2 127.4,165.3 		"/>
		<polygon class="st5" points="33.4,0 31.8,0 33.9,0.7 		"/>
		<polygon class="st2" points="66.5,76.3 68,72.6 65.7,69 64.2,72.8 		"/>
		<polygon class="st2" points="217.7,74.1 220,77.7 221.5,73.9 219.3,70.3 		"/>
		<polygon class="st3" points="182.7,52.3 184.3,48.5 182,44.8 180.4,48.7 		"/>
		<polygon class="st4" points="96.3,48.6 94,45 92.5,48.8 94.8,52.4 		"/>
		<polygon class="st4" points="62.1,7.9 63.7,4 61.4,0.4 59.8,4.3 		"/>
		<polygon class="st6" points="117.4,142.7 123.5,141.5 127.2,138.4 121.1,139.6 		"/>
		<polygon class="st6" points="177.1,33.1 171.6,31.1 165.4,31.6 170.9,33.6 		"/>
		<polygon class="st1" points="707.4,352 710.1,354.1 712.8,353 708.4,351.2 		"/>
		<polygon class="st1" points="593.1,344.4 595.8,343.3 591.3,341.5 590.3,342.3 		"/>
		<polygon class="st1" points="594.9,385.6 597.7,387.7 600.4,386.6 595.9,384.9 		"/>
		<polygon class="st2" points="692.7,327.9 692,328.8 693,328.7 		"/>
		<polygon class="st3" points="690.9,305.7 696.8,307.6 692.8,303.8 686.9,301.9 		"/>
		<polygon class="st3" points="629.6,400.4 625.6,396.6 619.7,394.8 623.7,398.5 		"/>
		<polygon class="st4" points="780.5,347.3 783,344 781.7,339.9 779.2,343.2 		"/>
		<polygon class="st5" points="640.9,340.7 645.7,343.9 643.9,339.7 639,336.6 		"/>
		<polygon class="st4" points="587.3,368.6 590.9,368 595.4,364.7 591.9,365.3 		"/>
		<polygon class="st4" points="765.6,285.7 762,286.3 757.5,289.6 761,289 		"/>
		<polygon class="st4" points="620.8,214.5 617.2,215.1 612.7,218.4 616.2,217.8 		"/>
		<polygon class="st3" points="779.5,323.9 782,320.5 780.8,316.4 778.2,319.7 		"/>
		<polygon class="st6" points="770.6,322.9 764.4,322.4 760,324.5 766.2,325 		"/>
		<polygon class="st6" points="630.3,300.6 625.5,297.2 619.4,296.1 624.2,299.4 		"/>
		<polygon class="st6" points="618.9,356 612.2,351.2 608.3,357.1 615,362 		"/>
		<polygon class="st6" points="693,277.2 690.5,285 697.3,286.9 699.9,279 		"/>
		<polygon class="st2" points="652.1,290.6 649.1,296.6 655.8,300.5 658.9,294.5 		"/>
		<polygon class="st2" points="441.3,269.2 438.2,275.1 445,279 448,273 		"/>
		<polygon class="st2" points="748.8,299.5 742.1,295.6 739,301.6 745.8,305.4 		"/>
		<polygon class="st4" points="727.2,256.8 730.3,250.8 723.5,246.9 720.5,252.9 		"/>
		<polygon class="st4" points="764.3,431.4 757.5,427.5 754.5,433.5 761.2,437.4 		"/>
		<polygon class="st3" points="651.5,387.2 651.6,378.9 644.5,379.1 644.4,387.4 		"/>
		<polygon class="st6" points="795.1,315.8 800,316.6 800,310.9 798.1,309.8 		"/>
		<polygon class="st2" points="585.5,407.4 578.7,402.6 574.9,408.6 581.6,413.4 		"/>
		<polygon class="st2" points="551,343 557.7,347.9 561.6,341.9 554.9,337 		"/>
		<polygon class="st3" points="695.8,336.2 695.1,328.4 693,328.7 694,331.9 691.5,335.2 690.2,331.2 692,328.8 688.5,329.3 
			689.2,337.1 		"/>
		<polygon class="st3" points="691.5,335.2 694,331.9 693,328.7 692,328.8 690.2,331.2 		"/>
		<polygon class="st3" points="645.9,230.4 652.5,229.5 651.8,221.7 645.2,222.6 		"/>
		<polygon class="st3" points="615.5,331.7 614.8,324 608.1,324.9 608.8,332.7 		"/>
		<polygon class="st3" points="583.7,284.2 584.4,291.9 591,291 590.3,283.2 		"/>
		<polygon class="st2" points="786,380.8 792.7,384.6 795.8,378.6 789,374.8 		"/>
		<polygon class="st5" points="596.9,306.4 604.2,311.2 601.5,304.9 594.1,300.2 		"/>
		<polygon class="st1" points="669.8,342.5 665.6,339.3 661.6,340.9 668.3,343.5 		"/>
		<polygon class="st2" points="746.7,385 750.5,380 748.6,373.9 744.8,378.9 		"/>
		<polygon class="st2" points="591.2,448 595,443 593.1,436.8 589.3,441.8 		"/>
		<polygon class="st2" points="726.4,427.4 727.1,426.5 725.2,420.4 722.9,423.3 724.4,425.3 		"/>
		<polygon class="st4" points="729.1,371.9 732.9,366.9 731,360.8 727.2,365.7 		"/>
		<polygon class="st2" points="710.6,220.2 706.9,225.1 708.8,231.1 712.5,226.3 		"/>
		<polygon class="st2" points="698.7,184.1 695,189 696.9,195 700.6,190.2 		"/>
		<polygon class="st3" points="719,242.3 716.3,237.8 712.9,240.8 715.6,245.3 		"/>
		<polygon class="st6" points="775.9,420.8 771.4,422.8 777.6,423.3 782,421.3 		"/>
		<polygon class="st1" points="768.8,334.4 766,332.3 763.3,333.4 767.8,335.1 		"/>
		<polygon class="st3" points="740.7,240.8 739.4,236.7 736.9,240 738.2,244.1 		"/>
		<polygon class="st6" points="685.1,399.5 691.3,396.6 682.7,395.9 676.4,398.8 		"/>
		<polygon class="st2" points="741.4,262.2 738.7,260.1 736,261.2 740.4,262.9 		"/>
		<polygon class="st2" points="727.6,291.4 725.1,294.6 730.4,293.5 733,290.4 		"/>
		<polygon class="st4" points="642.2,270.4 637.5,267 631.4,265.7 636.1,269.1 		"/>
		<polygon class="st1" points="493.1,260.1 495.8,262.2 498.5,261.1 494.1,259.4 		"/>
		<polygon class="st1" points="500.5,305.6 503.2,304.4 498.7,302.7 497.7,303.4 		"/>
		<polygon class="st3" points="528.4,314.5 522.5,312.6 526.5,316.4 532.4,318.2 		"/>
		<polygon class="st5" points="546.7,257.6 541.8,254.4 543.6,258.6 548.5,261.7 		"/>
		<polygon class="st4" points="490.1,286.5 493.6,285.9 498.2,282.6 494.7,283.2 		"/>
		<polygon class="st6" points="533.1,218.4 528.3,215.1 522.2,213.9 527,217.3 		"/>
		<polygon class="st6" points="517.8,279.8 521.7,273.9 515,269 511.1,275 		"/>
		<polygon class="st2" points="554.9,208.5 551.8,214.5 558.6,218.3 561.6,212.3 		"/>
		<polygon class="st3" points="547.3,296.9 547.1,305.2 554.3,305 554.4,296.7 		"/>
		<polygon class="st3" points="510.9,242.8 511.6,250.5 518.2,249.6 517.5,241.8 		"/>
		<polygon class="st5" points="504.3,222.7 496.9,218 499.7,224.3 506.1,228.4 506.6,228.2 		"/>
		<polygon class="st1" points="572.5,260.3 568.4,257.1 564.3,258.8 571,261.4 		"/>
		<polygon class="st4" points="545,188.3 540.3,184.9 534.2,183.6 538.9,187 		"/>
		<polygon class="st6" points="649,245.3 655.7,246.8 659.3,243.3 652.6,241.8 		"/>
		<polygon class="st6" points="576.3,193.5 572.7,197.1 579.4,198.5 583,195 		"/>
		<polygon class="st6" points="724,318.3 717.4,316.8 713.7,320.4 720.4,321.9 		"/>
		<polygon class="st5" points="610.2,248.7 616.6,251.5 615.8,247.1 609.3,244.3 		"/>
		<polygon class="st5" points="624,230.3 630.5,233.1 629.7,228.7 623.2,225.9 		"/>
		<polygon class="st5" points="747,412.6 750.4,409.6 749.3,402.7 746,405.7 		"/>
		<polygon class="st5" points="674.2,364.5 680.7,367.3 679.9,362.9 673.4,360.1 		"/>
		<polygon class="st5" points="632.9,427.7 639.4,430.4 638.6,426 632.1,423.2 		"/>
		<polygon class="st2" points="619.9,205.5 624.3,207.2 625.2,206.5 622.5,204.4 		"/>
		<polygon class="st3" points="690.9,444.5 685,442.6 689,446.4 694.9,448.3 		"/>
		<polygon class="st4" points="459.8,246.9 462.8,240.9 456,237 453,243 		"/>
		<polygon class="st2" points="423.7,229.8 419.9,234.8 421.8,241 425.7,236 		"/>
		<polygon class="st6" points="474.4,230.3 470,232.3 476.1,232.8 480.5,230.8 		"/>
		<polygon class="st3" points="389.4,254 383.5,252.1 387.5,255.9 393.4,257.8 		"/>
		<polygon class="st4" points="265.9,242.6 261,236.5 256,241 260.9,247.1 		"/>
		<polygon class="st2" points="233.7,217.9 228.3,221.1 227.8,227.5 233.2,224.3 		"/>
		<polygon class="st6" points="281.3,240.1 286.1,239.8 280.6,237.1 275.7,237.3 		"/>
		<polygon class="st3" points="192.9,227.6 188.1,223.6 190.4,228.6 195.2,232.6 		"/>
		<polygon class="st4" points="753.6,252 756.1,248.7 754.8,244.6 752.3,247.9 		"/>
		<polygon class="st4" points="792.1,268.6 794.6,265.3 793.4,261.2 790.8,264.5 		"/>
		<polygon class="st4" points="704.1,393.4 701.5,396.7 702.8,400.8 705.3,397.5 		"/>
		<polygon class="st5" points="656.5,209.9 651.6,206.7 653.4,210.9 658.3,214.1 		"/>
		<polygon class="st2" points="669.9,295.7 672.4,292.4 671.1,288.4 668.6,291.6 		"/>
		<polygon class="st3" points="788.3,303 790.9,299.7 789.6,295.6 787.1,298.9 		"/>
		<polygon class="st4" points="706,276.7 704.7,272.6 702.2,275.9 703.5,280 		"/>
		<polygon class="st4" points="683.6,228.4 686.2,225.1 684.9,221 682.3,224.3 		"/>
		<polygon class="st6" points="707.7,373.5 712.2,371.5 706,371 701.6,373 		"/>
		<polygon class="st6" points="788,283 783.2,279.6 777.1,278.4 781.9,281.8 		"/>
		<polygon class="st1" points="100.1,361.5 98.3,364.5 99.7,367 100.9,362.4 		"/>
		<polygon class="st1" points="95.5,249.6 96.7,245 95.9,244.1 94.1,247.1 		"/>
		<polygon class="st1" points="53,259.4 54.2,254.7 53.4,253.8 51.6,256.8 		"/>
		<polygon class="st2" points="122.2,344.1 121.3,343.5 121.5,344.4 		"/>
		<polygon class="st3" points="147.4,335.2 144.1,339.6 143,345.7 146.2,341.3 		"/>
		<polygon class="st3" points="47.2,279.5 44,283.9 42.8,290 46,285.6 		"/>
		<polygon class="st4" points="117.3,431.7 113.4,433.5 117,435.6 120.9,433.9 		"/>
		<polygon class="st5" points="104.7,297 107.3,291.8 103.4,294.1 100.8,299.3 		"/>
		<polygon class="st4" points="70.3,247.7 74.1,251.9 73.1,248.4 69.3,244.2 		"/>
		<polygon class="st4" points="169,407.2 172.8,411.4 171.8,407.9 168,403.8 		"/>
		<polygon class="st4" points="225.3,255.7 221.5,251.6 222.5,255 226.3,259.2 		"/>
		<polygon class="st3" points="144.1,430.1 140.5,428 136.6,429.7 140.2,431.9 		"/>
		<polygon class="st6" points="136.4,420.8 136.2,414.6 133.7,410.5 133.9,416.6 		"/>
		<path class="st6" d="M142.6,275.5c-0.1,0-0.3-0.1-0.4-0.1l-0.1,2c0.2,0.1,0.3,0.2,0.5,0.3l1-1.8c-0.1-0.1-0.2-0.1-0.2-0.2
			C143,275.6,142.8,275.5,142.6,275.5z"/>
		<path class="st6" d="M144.8,272.3l0.3-4.8l-1.9,3.6c0.4,0.3,0.9,0.7,1.4,1C144.7,272.2,144.7,272.3,144.8,272.3z"/>
		<polygon class="st6" points="85.6,274.1 89.6,266.9 83.2,263.7 79.2,271 		"/>
		<polygon class="st6" points="164.6,336.7 163.5,343.8 171.6,345.4 172.7,338.3 		"/>
		<polygon class="st2" points="148.2,297 145.1,304.2 151.4,306.5 154.5,299.3 		"/>
		<polygon class="st2" points="723.7,549.5 720.7,556.7 727,559 730,551.8 		"/>
		<polygon class="st2" points="23.7,653.5 20.7,660.7 27,663 30,655.8 		"/>
		<polygon class="st2" points="136,691.8 133,699 139.3,701.3 142.3,694.1 		"/>
		<polygon class="st2" points="153.9,386.9 150.9,394.1 157.2,396.4 160.2,389.2 		"/>
		<polygon class="st4" points="206.3,365 200,362.7 197,369.9 203.3,372.2 		"/>
		<polygon class="st4" points="178.7,544.7 175.7,551.9 182,554.2 185,547 		"/>
		<polygon class="st4" points="28.2,533.8 21.5,531.5 18.3,538.7 25,541 		"/>
		<polygon class="st3" points="58.5,310.2 66.8,309.3 65.7,302.3 57.5,303.1 		"/>
		<polygon class="st2" points="30.5,247 34.6,239.8 28.2,236.6 24.2,243.8 		"/>
		<polygon class="st3" points="118.4,345.8 114.9,343.7 118.7,342 121.3,343.5 120.3,340 112.7,341.6 114.4,348.1 122.1,346.5 
			121.5,344.4 		"/>
		<polygon class="st3" points="114.9,343.7 118.4,345.8 121.5,344.4 121.3,343.5 118.7,342 		"/>
		<polygon class="st3" points="279,629 277.3,622.5 269.7,624.1 271.4,630.6 		"/>
		<polygon class="st2" points="409,565.7 408.1,565.2 408.3,566.1 		"/>
		<polygon class="st3" points="429.8,567.4 433,563 434.2,556.9 430.9,561.3 		"/>
		<polygon class="st6" points="459.5,560 451.4,558.4 450.3,565.5 458.4,567.1 		"/>
		<polygon class="st3" points="408.9,568.2 408.3,566.1 405.2,567.5 401.7,565.4 405.5,563.7 408.1,565.2 407.1,561.7 399.5,563.3 
			401.2,569.8 		"/>
		<polygon class="st3" points="401.7,565.4 405.2,567.5 408.3,566.1 408.1,565.2 405.5,563.7 		"/>
		<polygon class="st2" points="31,467.7 30.1,467.2 30.3,468.1 		"/>
		<polygon class="st3" points="51.8,469.4 55,465 56.2,458.9 52.9,463.3 		"/>
		<polygon class="st6" points="80.4,469.1 81.5,462 73.4,460.4 72.3,467.5 		"/>
		<polygon class="st3" points="27.2,469.5 23.7,467.4 27.5,465.7 30.1,467.2 29.1,463.7 21.5,465.3 23.2,471.8 30.9,470.2 
			30.3,468.1 		"/>
		<polygon class="st3" points="23.7,467.4 27.2,469.5 30.3,468.1 30.1,467.2 27.5,465.7 		"/>
		<polygon class="st2" points="169,593.7 168.1,593.2 168.3,594.1 		"/>
		<polygon class="st3" points="189.8,595.4 193,591 194.2,584.9 190.9,589.3 		"/>
		<polygon class="st6" points="219.5,588 211.4,586.4 210.3,593.5 218.4,595.1 		"/>
		<polygon class="st3" points="165.2,595.5 161.7,593.4 165.5,591.7 168.1,593.2 167.1,589.7 159.5,591.3 161.2,597.8 168.9,596.2 
			168.3,594.1 		"/>
		<polygon class="st3" points="161.7,593.4 165.2,595.5 168.3,594.1 168.1,593.2 165.5,591.7 		"/>
		<polygon class="st2" points="743,507.7 742.1,507.2 742.3,508.1 		"/>
		<polygon class="st3" points="763.8,509.4 767,505 768.2,498.9 764.9,503.3 		"/>
		<polygon class="st6" points="793.5,502 785.4,500.4 784.3,507.5 792.4,509.1 		"/>
		<polygon class="st3" points="739.2,509.5 735.7,507.4 739.5,505.7 742.1,507.2 741.1,503.7 733.5,505.3 735.2,511.8 742.9,510.2 
			742.3,508.1 		"/>
		<polygon class="st3" points="735.7,507.4 739.2,509.5 742.3,508.1 742.1,507.2 739.5,505.7 		"/>
		<polygon class="st2" points="645.1,584.8 645.9,584 644.9,584 		"/>
		<polygon class="st3" points="643.2,608.9 648.9,611.2 645.2,607.1 639.5,604.8 		"/>
		<polygon class="st6" points="637.4,625.4 634.3,633 641,635.4 644.1,627.8 		"/>
		<polygon class="st3" points="642.6,576.4 642.7,584.2 644.9,584 644.1,580.7 646.9,577.7 647.8,581.8 645.9,584 649.4,583.7 
			649.3,575.9 		"/>
		<polygon class="st3" points="646.9,577.7 644.1,580.7 644.9,584 645.9,584 647.8,581.8 		"/>
		<polygon class="st3" points="195.1,455.4 193.3,448.9 185.7,450.5 187.4,457 		"/>
		<polygon class="st3" points="222.8,290.8 221.1,284.3 213.5,286 215.2,292.4 		"/>
		<polygon class="st3" points="115.2,259.7 107.6,261.3 109.3,267.8 116.9,266.2 		"/>
		<polygon class="st5" points="132.2,246.4 128.4,254.2 134.3,250.7 138.1,242.9 		"/>
		<polygon class="st2" points="83.2,405 77.9,401.8 72,404.5 77.4,407.6 		"/>
		<polygon class="st2" points="99.5,581.2 93.6,583.8 99,587 104.9,584.4 		"/>
		<polygon class="st2" points="34.3,387.3 28.9,384.1 23,386.7 28.4,389.9 		"/>
		<polygon class="st4" points="94.2,385.9 88.8,382.8 82.9,385.4 88.3,388.6 		"/>
		<polygon class="st3" points="207,357 210.4,360 214.6,356.8 211.1,353.7 		"/>
		<polygon class="st6" points="37.6,439.6 40.3,443.8 40,437.6 37.3,433.5 		"/>
		<polygon class="st1" points="125.2,414.8 124,419.4 124.8,420.3 126.6,417.3 		"/>
		<polygon class="st3" points="214.8,377.5 210.9,379.2 214.5,381.4 218.4,379.6 		"/>
		<polygon class="st2" points="193.6,379.2 192.5,383.7 193.3,384.6 195,381.7 		"/>
		<polygon class="st4" points="173.9,280.9 173.3,287.1 176.2,282 176.7,275.8 		"/>
		<polygon class="st6" points="199.1,290.8 198.4,297.6 202.4,300.8 203,294 		"/>
		<polygon class="st6" points="132.2,364 131.6,370.8 135.5,374 136.2,367.2 		"/>
		<polygon class="st5" points="193.4,258.1 195.4,251.3 191.1,252.7 189.1,259.4 		"/>
		<polygon class="st5" points="209,271 213.3,269.7 215.3,262.9 211,264.3 		"/>
		<polygon class="st5" points="45,408.1 48.6,411 55.8,409.2 52.2,406.2 		"/>
		<polygon class="st4" points="538.2,447.8 531.5,445.5 528.3,452.7 535,455 		"/>
		<polygon class="st6" points="545.2,467.3 547.9,471.4 547.6,465.3 545,461.1 		"/>
		<polygon class="st5" points="552.6,435.7 556.2,438.6 563.4,436.8 559.8,433.8 		"/>
		<polygon class="st4" points="281,281 274.3,278.7 271.1,285.9 277.8,288.2 		"/>
		<polygon class="st6" points="288,300.4 290.7,304.6 290.4,298.4 287.7,294.3 		"/>
		<polygon class="st5" points="295.4,268.9 299,271.8 306.2,270 302.6,267 		"/>
		<polygon class="st5" points="83.7,330 81.7,336.8 86,335.4 88,328.7 		"/>
		<polygon class="st5" points="18.4,302 20.4,295.2 16.1,296.5 14.1,303.3 		"/>
		<polygon class="st2" points="235.2,257.2 234,261.8 234.8,262.7 236.6,259.7 		"/>
		<polygon class="st3" points="206.5,465.2 203.3,469.6 202.1,475.7 205.4,471.3 		"/>
		<polygon class="st3" points="3,360.5 6.2,356.1 7.4,350 4.2,354.4 		"/>
		<polygon class="st4" points="208.4,397.6 212.3,395.8 208.8,393.7 204.8,395.5 		"/>
		<polygon class="st4" points="196.9,433.9 192.9,435.7 196.5,437.8 200.4,436.1 		"/>
		<polygon class="st4" points="55,361 51.1,362.7 54.7,364.8 58.6,363.1 		"/>
		<polygon class="st5" points="233.8,291.2 231.2,296.4 235.1,294.1 237.7,288.8 		"/>
		<polygon class="st2" points="151.6,317.5 155.1,319.6 158.9,317.9 155.4,315.8 		"/>
		<polygon class="st2" points="135.2,469.6 131.7,467.5 127.8,469.2 131.3,471.3 		"/>
		<polygon class="st4" points="178.6,349.4 175,347.3 171.1,349 174.7,351.2 		"/>
		<polygon class="st3" points="637.9,472.2 634.7,476.6 633.5,482.7 636.8,478.3 		"/>
		<polygon class="st6" points="655.1,473.7 654.1,480.8 662.2,482.4 663.3,475.3 		"/>
		<polygon class="st2" points="641.4,531.1 647.7,533.4 650.8,526.2 644.5,523.9 		"/>
		<polygon class="st4" points="693.7,631.5 690.7,638.7 697,641 700,633.8 		"/>
		<polygon class="st4" points="587.7,561.5 584.7,568.7 591,571 594,563.8 		"/>
		<polygon class="st3" points="697.6,493.9 701,497 705.2,493.8 701.7,490.7 		"/>
		<polygon class="st3" points="705.4,514.5 701.4,516.2 705,518.3 709,516.6 		"/>
		<polygon class="st2" points="685.6,518.6 684.2,516.1 683,520.7 683.9,521.6 		"/>
		<polygon class="st4" points="665.6,484.3 661.7,486 665.2,488.1 669.2,486.4 		"/>
		<polygon class="st4" points="223.9,321.5 219.9,323.2 223.5,325.3 227.5,323.6 		"/>
		<polygon class="st6" points="81,362.4 78.5,358.2 78.7,364.4 81.3,368.6 		"/>
		<polygon class="st6" points="181,428.1 181.4,422 178.7,427.1 178.2,433.3 		"/>
		<polygon class="st4" points="75.5,504.4 71.5,506.2 75.1,508.3 79.1,506.5 		"/>
		<polygon class="st3" points="94.7,502.4 98.3,504.5 102.3,502.8 98.7,500.7 		"/>
		<polygon class="st6" points="94.6,493.5 94.4,487.3 91.8,483.1 92.1,489.3 		"/>
		<polygon class="st3" points="153.2,528 151.5,521.5 143.9,523.2 145.6,529.6 		"/>
		<polygon class="st1" points="83.4,487.5 82.2,492.1 83,493 84.8,490 		"/>
		<polygon class="st2" points="93.3,542.2 89.8,540.2 86,541.9 89.5,544 		"/>
		<polygon class="st6" points="139.1,500.8 139.6,494.6 136.8,499.8 136.4,506 		"/>
		<polygon class="st4" points="233.7,535.4 229.8,537.2 233.3,539.3 237.3,537.5 		"/>
		<polygon class="st3" points="256.9,531.7 252.9,533.4 256.5,535.5 260.5,533.8 		"/>
		<polygon class="st6" points="252.8,524.5 252.6,518.3 250,514.1 250.3,520.3 		"/>
		<polygon class="st3" points="302.1,554.1 303.8,560.6 311.4,559 309.7,552.5 		"/>
		<polygon class="st1" points="241.6,518.4 240.4,523.1 241.2,524 243,521 		"/>
		<polygon class="st2" points="248,571.2 244.2,572.9 247.7,575 251.6,573.2 		"/>
		<polygon class="st6" points="297.3,531.8 297.8,525.6 295,530.8 294.6,537 		"/>
		<polygon class="st4" points="461.3,663.1 457.4,664.9 461,667 464.9,665.2 		"/>
		<polygon class="st4" points="145.4,638.9 149,641 152.9,639.2 149.3,637.1 		"/>
		<polygon class="st4" points="199.3,509.1 195.4,510.9 199,513 202.9,511.2 		"/>
		<polygon class="st4" points="533.3,605.1 529.4,606.9 533,609 536.9,607.2 		"/>
		<polygon class="st3" points="500.9,535.4 504.5,537.5 508.5,535.8 504.9,533.7 		"/>
		<polygon class="st6" points="498,516.1 498.3,522.3 500.8,526.5 500.6,520.3 		"/>
		<polygon class="st3" points="550.1,556.1 551.8,562.6 559.4,561 557.7,554.5 		"/>
		<polygon class="st1" points="491,523 489.6,520.4 488.4,525.1 489.2,526 		"/>
		<polygon class="st2" points="496,573.2 492.2,574.9 495.7,577 499.6,575.2 		"/>
		<polygon class="st6" points="545.3,533.8 545.8,527.6 543,532.8 542.6,539 		"/>
		<polygon class="st4" points="347.7,617.4 343.8,619.2 347.3,621.3 351.3,619.5 		"/>
		<polygon class="st4" points="277,735 273.1,736.8 276.7,738.9 280.6,737.1 		"/>
		<polygon class="st3" points="366.9,615.4 370.5,617.5 374.5,615.8 370.9,613.7 		"/>
		<polygon class="st6" points="364,596.1 364.3,602.3 366.8,606.5 366.6,600.3 		"/>
		<polygon class="st3" points="416.1,636.1 417.8,642.6 425.4,641 423.7,634.5 		"/>
		<polygon class="st1" points="355.6,600.4 354.4,605.1 355.2,606 357,603 		"/>
		<polygon class="st2" points="362,653.2 358.2,654.9 361.7,657 365.6,655.2 		"/>
		<polygon class="st6" points="411.3,613.8 411.8,607.6 409,612.8 408.6,619 		"/>
		<polygon class="st1" points="347,412.6 344,414.4 344,417.3 347.3,413.8 		"/>
		<polygon class="st1" points="399.2,307.4 396.2,309.1 396.2,312.1 399.5,308.6 		"/>
		<polygon class="st1" points="357.2,295.7 354.2,297.5 354.3,300.4 357.5,296.9 		"/>
		<polygon class="st2" points="374.7,407.8 374.1,406.9 373.9,407.8 		"/>
		<polygon class="st3" points="392.1,419.2 397.1,416.9 401,412.1 396.1,414.4 		"/>
		<polygon class="st3" points="339.5,315.3 334.6,317.6 330.7,322.4 335.6,320.1 		"/>
		<polygon class="st4" points="330.8,486.1 328.6,482.6 324.3,482.2 326.5,485.8 		"/>
		<polygon class="st5" points="386.5,354.7 382,354.9 377.2,358.3 381.8,358.1 		"/>
		<polygon class="st4" points="376.4,303.8 377.2,300.3 375.8,294.9 375,298.4 		"/>
		<polygon class="st4" points="387.1,491.1 387.9,487.6 386.5,482.1 385.7,485.7 		"/>
		<polygon class="st4" points="505.3,377.3 506.7,382.8 507.4,379.3 506.1,373.8 		"/>
		<polygon class="st3" points="352.9,493.9 350.8,490.3 346.5,490 348.6,493.6 		"/>
		<polygon class="st6" points="353.4,476.5 353.1,471.7 350.4,477.2 350.6,482.1 		"/>
		<polygon class="st6" points="423.2,359.9 428,356.7 431.4,351.5 426.5,354.7 		"/>
		<polygon class="st6" points="382.8,324.5 378.7,318.6 371.7,323.1 375.8,328.9 		"/>
		<polygon class="st6" points="361.6,231.4 368.6,227 364.4,221.1 357.5,225.6 		"/>
		<polygon class="st6" points="374.4,266.6 370.2,260.8 363.3,265.2 367.4,271 		"/>
		<polygon class="st6" points="425.9,262.1 421.8,256.3 414.8,260.7 418.9,266.5 		"/>
		<polygon class="st6" points="615.1,190 622.1,185.6 618,179.8 611,184.2 		"/>
		<polygon class="st6" points="586.1,236.6 582,230.8 575,235.2 579.1,241 		"/>
		<polygon class="st6" points="421.8,426.9 415.4,421.6 411.2,427.3 417.5,432.6 		"/>
		<polygon class="st2" points="424.4,383.9 419.9,378.8 413.9,383.7 418.3,388.7 		"/>
		<polygon class="st2" points="386.6,465.6 382.1,460.6 376,465.5 380.5,470.5 		"/>
		<polygon class="st4" points="432.6,471.2 438.7,466.3 434.2,461.3 428.1,466.2 		"/>
		<polygon class="st4" points="252.2,436.2 258.3,431.3 253.8,426.3 247.7,431.1 		"/>
		<polygon class="st2" points="360,545.3 363.4,539.5 356.9,535.3 353.5,541 		"/>
		<polygon class="st3" points="342.5,350.9 344.9,344.2 337.3,341 334.9,347.7 		"/>
		<polygon class="st6" points="352.7,512.5 348.2,507.5 345.6,511.9 346.6,517.3 		"/>
		<polygon class="st2" points="343.3,268.5 336.3,273 340.4,278.8 347.4,274.4 		"/>
		<polygon class="st3" points="373.9,407.8 370.5,407.5 368.4,404 372.6,404.3 374.1,406.9 375,403.4 367.5,401.2 365.9,407.7 
			373.4,409.9 		"/>
		<polygon class="st3" points="368.4,404 370.5,407.5 373.9,407.8 374.1,406.9 372.6,404.3 		"/>
		<polygon class="st3" points="385.7,540.4 387.3,533.9 379.8,531.7 378.2,538.2 		"/>
		<polygon class="st3" points="490.1,402.5 482.7,400.3 481.1,406.8 488.5,409 		"/>
		<polygon class="st3" points="408.7,330.3 401.3,328.1 399.7,334.6 407.2,336.8 		"/>
		<polygon class="st2" points="291.2,475 285.1,479.9 289.6,484.9 295.7,480 		"/>
		<polygon class="st5" points="436.9,326.5 430.1,326.7 423,331.8 429.8,331.5 		"/>
		<polygon class="st1" points="374.1,374.1 369.2,379.3 369.7,381.1 374.2,378.5 		"/>
		<polygon class="st2" points="311.4,442.8 308.2,437.5 301.8,437 305,442.3 		"/>
		<polygon class="st2" points="276.8,403.9 273.6,398.6 267.2,398.1 270.4,403.4 		"/>
		<polygon class="st4" points="330.1,431.3 326.9,425.9 320.4,425.4 323.7,430.8 		"/>
		<polygon class="st2" points="468.2,464.2 465.1,459 458.8,458.5 461.9,463.8 		"/>
		<polygon class="st3" points="449.8,463.1 448.3,458.7 443.1,459.6 444.7,463.9 		"/>
		<polygon class="st6" points="254.8,451.5 255,456.4 257.8,450.9 257.5,446 		"/>
		<polygon class="st1" points="340.7,476.1 343.7,474.4 343.6,471.4 340.4,474.9 		"/>
		<polygon class="st3" points="442.3,484.9 440.2,481.3 435.9,481 438,484.6 		"/>
		<polygon class="st6" points="311,374.3 311.4,381.2 315.2,373.4 314.9,366.6 		"/>
		<polygon class="st2" points="417.9,477.3 420.8,475.6 420.8,472.7 417.6,476.2 		"/>
		<polygon class="st2" points="393.8,450.2 392.8,455.6 394.8,459.1 395.8,453.7 		"/>
		<polygon class="st4" points="455.1,373.8 450.2,376.9 446.8,382.1 451.7,379 		"/>
		<polygon class="st6" points="469.6,402.4 467.6,397.7 463.8,403.3 465.8,408 		"/>
		<polygon class="st6" points="375.9,434.8 374,430.2 370.2,435.8 372.1,440.5 		"/>
		<polygon class="st5" points="483.2,361.2 478.8,360.3 473.9,365.3 478.3,366.2 		"/>
		<polygon class="st5" points="485.9,385 490.3,385.9 495.2,380.9 490.8,380 		"/>
		<polygon class="st5" points="277.5,431.3 284.4,432.9 282.8,428.7 275.9,427.1 		"/>
		<polygon class="st5" points="352,378 347.6,377.2 342.6,382.1 347,383 		"/>
		<polygon class="st5" points="308.5,316.3 304.1,315.5 299.1,320.5 303.5,321.3 		"/>
		<polygon class="st2" points="512.2,388.8 512.5,389.9 515.4,388.2 515.4,385.3 		"/>
		<polygon class="st3" points="391.1,554.5 386.1,556.8 382.2,561.6 387.2,559.3 		"/>
		<polygon class="st3" points="262.1,365.4 267,363.1 271,358.3 266,360.6 		"/>
		<polygon class="st4" points="422.8,492.4 425,496 429.3,496.3 427.1,492.7 		"/>
		<polygon class="st4" points="399.6,526 397.5,522.4 393.2,522.1 395.3,525.7 		"/>
		<polygon class="st4" points="309.7,394.2 307.6,390.6 303.3,390.3 305.4,393.9 		"/>
		<polygon class="st5" points="502.5,414.3 498,414.5 493.2,417.9 497.8,417.7 		"/>
		<polygon class="st2" points="419.5,402.3 417.4,398.8 413.2,398.5 415.3,402 		"/>
		<polygon class="st2" points="320,520.5 322.1,524 326.3,524.3 324.2,520.8 		"/>
		<polygon class="st3" points="369.1,509.8 366.9,506.2 362.7,505.9 364.8,509.5 		"/>
		<polygon class="st4" points="421.7,439.4 419.6,435.8 415.3,435.5 417.4,439.1 		"/>
		<polygon class="st4" points="477,440 474.8,436.4 470.6,436.1 472.7,439.7 		"/>
		<polygon class="st6" points="326.8,405 327,409.9 329.8,404.3 329.5,399.4 		"/>
		<polygon class="st6" points="381.4,513 386.3,509.7 389.6,504.5 384.7,507.7 		"/>
		<polygon class="st1" points="329.5,115.1 330,110.3 329,109.6 327.7,112.8 		"/>
		<polygon class="st1" points="387.3,4.5 387.8,0 386.5,0 385.5,2.2 		"/>
		<polygon class="st1" points="267.5,15.4 268,10.7 267.1,9.9 265.7,13.1 		"/>
		<polygon class="st2" points="348.4,89.1 347.3,88.7 347.7,89.6 		"/>
		<polygon class="st3" points="371.9,76.7 369.4,81.6 369.1,87.8 371.7,82.9 		"/>
		<polygon class="st3" points="264.4,42.4 264.7,36.2 262.1,41 261.9,47.2 		"/>
		<polygon class="st4" points="352.7,178.9 356.5,180.5 360.2,178.1 356.3,176.6 		"/>
		<polygon class="st5" points="326,39.6 322.4,42.4 320.6,48 324.2,45.1 		"/>
		<polygon class="st4" points="287.3,4.9 285.8,1.6 283.8,0 282.3,0 282.9,1.4 		"/>
		<polygon class="st4" points="295.9,52.2 300.3,55.8 298.8,52.5 294.4,49 		"/>
		<polygon class="st4" points="402.3,141.5 403.9,144.8 408.2,148.3 406.7,145.1 		"/>
		<polygon class="st3" points="375.1,171.8 378.9,173.4 382.6,171 378.7,169.5 		"/>
		<polygon class="st6" points="372.5,156.9 369.4,153.1 370.5,159.2 373.6,163 		"/>
		<path class="st6" d="M358.4,21.7l2-5.5l-0.1-1.4c-0.7,0.6-1.5,1.2-2.2,1.9L358.4,21.7z"/>
		<polygon class="st6" points="301.9,25.3 304.8,17.5 298.1,15.4 295.1,23.1 		"/>
		<polygon class="st6" points="442,36.8 433.7,36.3 433.7,43.5 442,43.9 		"/>
		<polygon class="st6" points="397.4,76.1 389.2,75.7 389.2,82.8 397.4,83.2 		"/>
		<polygon class="st2" points="412.8,41.1 406.2,39.8 404.3,47.3 410.9,48.7 		"/>
		<polygon class="st2" points="367.1,38.8 365.2,46.3 371.8,47.7 373.7,40.1 		"/>
		<polygon class="st2" points="392.5,128.3 386,126.9 384,134.4 390.6,135.8 		"/>
		<polygon class="st4" points="350.8,56.6 348.9,64.1 355.4,65.5 357.4,58 		"/>
		<polygon class="st5" points="341.1,161.7 333.4,162.1 334.1,168.8 341.9,168.3 		"/>
		<polygon class="st4" points="434.6,97.6 428,96.2 426.1,103.8 432.7,105.1 		"/>
		<polygon class="st4" points="262.7,176.4 260.7,183.9 267.3,185.3 269.3,177.8 		"/>
		<polygon class="st2" points="418.4,201.3 410.6,201.7 411.3,208.4 419.1,207.9 		"/>
		<polygon class="st3" points="288.4,62.9 286.3,56 278.3,58.1 280.4,64.9 		"/>
		<polygon class="st6" points="387.5,189.8 391.6,193.6 393.5,186.1 386.9,184.7 		"/>
		<polygon class="st6" points="260.9,123.8 262.8,116.3 256.2,114.9 256.8,120 		"/>
		<polygon class="st6" points="240.7,151.8 247.5,154 250.4,146.2 243.6,144.1 		"/>
		<path class="st2" d="M239.9,0h-1.5l-0.8,2.1C238.4,1.4,239.2,0.7,239.9,0z"/>
		<path class="st2" d="M242.6,3.7c0.7,0.1,1.2,0.3,1.7,0.6l1.6-4.3h-1.6c-0.1,0.7-0.4,1.9-1.3,3.1C242.9,3.3,242.8,3.5,242.6,3.7z"
			/>
		<polygon class="st3" points="341.2,94.3 348.6,91.6 347.7,89.6 344.8,91.4 341,89.8 344.6,87.6 347.3,88.7 345.9,85.4 338.6,88.1 
					"/>
		<polygon class="st3" points="341,89.8 344.8,91.4 347.7,89.6 347.3,88.7 344.6,87.6 		"/>
		<polygon class="st3" points="436.7,188.6 434,182.4 426.7,185.1 429.4,191.3 		"/>
		<polygon class="st3" points="430.2,18.3 432.8,24.5 440.1,21.8 437.5,15.6 		"/>
		<polygon class="st3" points="331.7,12.9 329.1,6.7 321.8,9.4 324.4,15.6 		"/>
		<polygon class="st2" points="321.8,193 319.9,200.5 326.5,201.8 328.4,194.3 		"/>
		<polygon class="st1" points="330.3,65.9 327.7,62.5 326.9,69.6 328.3,70.8 		"/>
		<polygon class="st1" points="250.2,99.8 251.6,101 253.6,96.1 250.9,92.7 		"/>
		<polygon class="st2" points="313.3,158.6 318.7,155.1 312.9,152.7 307.5,156.2 		"/>
		<polygon class="st2" points="267.7,144.7 261.9,142.3 256.5,145.8 262.3,148.2 		"/>
		<polygon class="st4" points="320.9,132.3 315.5,135.7 321.3,138.1 326.7,134.6 		"/>
		<polygon class="st5" points="343.2,203.4 345.9,195.1 340.5,199.4 337.9,207.7 		"/>
		<polygon class="st2" points="446,79.2 451.7,81.5 457,78.1 451.3,75.8 		"/>
		<polygon class="st3" points="441.6,88.2 437.7,85.7 434.1,89.5 438,92 		"/>
		<polygon class="st6" points="280.6,193.7 277.5,189.9 278.6,196 281.7,199.8 		"/>
		<polygon class="st1" points="361.1,163.4 362.1,164.2 363.4,161 361.6,158.6 		"/>
		<polygon class="st3" points="444.8,108.7 441.2,111 445.1,112.6 448.7,110.2 		"/>
		<polygon class="st6" points="280.1,97.3 275.7,92 277.3,100.5 281.7,105.8 		"/>
		<polygon class="st2" points="424.1,113.4 423.6,118.1 424.6,118.8 425.9,115.7 		"/>
		<polygon class="st2" points="392.8,113.2 389.1,111.6 391.5,116.5 395.2,118.1 		"/>
		<polygon class="st4" points="392.7,19.9 392.3,13.7 390.2,19.1 390.6,25.3 		"/>
		<polygon class="st6" points="421,27.8 416.6,25.2 416.9,32.1 421.3,34.6 		"/>
		<polygon class="st2" points="351.9,121.5 348.3,128.4 354.4,131.3 358,124.3 		"/>
		<polygon class="st6" points="365.5,110 361.2,107.4 361.5,114.2 365.9,116.8 		"/>
		<polygon class="st5" points="427.6,2.2 427.9,0 424.2,0 423.6,4.2 		"/>
		<polygon class="st5" points="280.9,163.8 284.7,166.2 291.1,163.4 287.3,160.9 		"/>
		<polygon class="st5" points="307.2,87.8 311.3,85.9 312.3,78.9 308.2,80.9 		"/>
		<polygon class="st5" points="239.5,62.6 240.5,55.6 236.5,57.6 235.5,64.6 		"/>
		<polygon class="st2" points="436.8,75.5 433,73.9 429.5,76.2 433.3,77.8 		"/>
		<polygon class="st3" points="446.9,201.5 446.6,207.7 449.2,202.8 449.4,196.6 		"/>
		<polygon class="st3" points="235.4,117.9 235.6,111.7 233.1,116.6 232.8,122.8 		"/>
		<polygon class="st4" points="441.4,129.5 445.1,127.2 441.2,125.6 437.6,127.9 		"/>
		<polygon class="st4" points="435.5,171 439.2,168.7 435.3,167.1 431.7,169.4 		"/>
		<polygon class="st4" points="284.6,119.5 288.2,117.2 284.3,115.7 280.7,118 		"/>
		<polygon class="st6" points="456.3,149.9 453.2,146.1 454.3,152.2 457.5,156 		"/>
		<polygon class="st5" points="452.8,23.2 454.5,17.6 451,20.5 449.2,26 		"/>
		<polygon class="st2" points="373.5,58.6 377.3,60.1 380.9,57.9 377.1,56.3 		"/>
		<polygon class="st2" points="372.2,212.1 376,213.7 379.5,211.4 375.7,209.8 		"/>
		<polygon class="st3" points="401.4,176.4 405,174.1 401.2,172.5 397.6,174.8 		"/>
		<polygon class="st4" points="401.1,84.6 397.4,86.9 401.3,88.5 404.9,86.2 		"/>
		<polygon class="st4" points="442,54.2 445.8,55.8 449.5,53.5 445.6,51.9 		"/>
		<polygon class="st6" points="310.3,113.3 307.2,109.5 308.3,115.6 311.4,119.3 		"/>
		<polygon class="st6" points="418.7,163.7 418.3,157.5 416.3,163.1 416.8,169.2 		"/>
		<polygon class="st1" points="560.5,37.8 558.2,39.5 562.9,40.1 563.7,39.1 		"/>
		<polygon class="st1" points="668.7,97.4 673.5,97.9 674.3,97 671.1,95.6 		"/>
		<polygon class="st1" points="678.4,18.7 679.2,17.8 676,16.4 673.7,18.2 		"/>
		<polygon class="st2" points="584.2,58.5 584.6,57.4 583.7,57.8 		"/>
		<polygon class="st3" points="590.4,81.8 596.6,82 591.7,79.5 585.5,79.2 		"/>
		<polygon class="st4" points="495.1,70.2 496.7,66.4 494.4,62.8 492.8,66.6 		"/>
		<polygon class="st5" points="625.3,30.7 628.2,34.3 633.7,36 630.8,32.5 		"/>
		<polygon class="st4" points="617.5,10.4 620.8,8.9 624.3,4.5 621.1,6 		"/>
		<polygon class="st4" points="524.9,118.3 528.2,116.8 531.7,112.4 528.5,113.9 		"/>
		<polygon class="st4" points="683.3,149 686.6,147.5 690.2,143.1 686.9,144.6 		"/>
		<polygon class="st3" points="503.8,88.8 501.5,85.2 499.9,89 502.2,92.6 		"/>
		<polygon class="st6" points="510.3,83.7 516.4,82.6 520.1,79.4 514.1,80.6 		"/>
		<polygon class="st6" points="663.2,70 657.7,68 651.6,68.5 657.1,70.4 		"/>
		<polygon class="st6" points="657.9,8.1 650.2,5.2 648,12 655.7,14.9 		"/>
		<polygon class="st6" points="629.8,143.8 629.4,152 636.5,152 636.9,143.8 		"/>
		<polygon class="st6" points="590.5,99.3 590,107.5 597.2,107.5 597.6,99.2 		"/>
		<polygon class="st2" points="626,114.4 624.6,120.9 632.1,122.9 633.5,116.3 		"/>
		<polygon class="st2" points="626.9,75.3 625.6,81.8 633.1,83.8 634.5,77.2 		"/>
		<polygon class="st2" points="545,102.6 546.4,96 538.8,94.1 537.5,100.7 		"/>
		<polygon class="st4" points="609.1,58.9 607.8,65.5 615.3,67.5 616.7,60.9 		"/>
		<polygon class="st5" points="511.6,51.2 511.1,43.4 504.5,44.2 504.9,52 		"/>
		<polygon class="st4" points="569.5,136.2 568.2,142.7 575.7,144.7 577.1,138.1 		"/>
		<polygon class="st2" points="471.5,120.7 464.9,121.4 465.3,129.2 472,128.4 		"/>
		<polygon class="st6" points="479.7,101.6 487.2,103.6 488.6,97 483.4,97.6 		"/>
		<polygon class="st3" points="681.4,79.3 677.7,83.3 685.2,85.3 686.6,78.7 		"/>
		<polygon class="st3" points="579,51.3 581.7,58.6 583.7,57.8 581.9,54.9 583.4,51.1 585.7,54.7 584.6,57.4 587.9,56 585.2,48.7 		
			"/>
		<polygon class="st3" points="583.4,51.1 581.9,54.9 583.7,57.8 584.6,57.4 585.7,54.7 		"/>
		<polygon class="st3" points="488.1,136.8 482,139.4 484.7,146.7 490.8,144.1 		"/>
		<polygon class="st3" points="648.8,142.9 651.5,150.2 657.7,147.6 655,140.3 		"/>
		<polygon class="st3" points="657.7,34.5 660.4,41.8 666.6,39.2 663.9,31.8 		"/>
		<polygon class="st2" points="471.4,36.5 479,38.5 480.3,31.9 472.8,30 		"/>
		<polygon class="st5" points="673.9,51.4 678.2,56.7 686.6,59.4 682.3,54.1 		"/>
		<polygon class="st1" points="607.3,40.4 610.8,37.7 603.7,37 602.5,38.4 		"/>
		<polygon class="st2" points="518.2,28.8 520.5,23 517.1,17.5 514.7,23.3 		"/>
		<polygon class="st4" points="538.6,36.8 541,31 537.5,25.6 535.2,31.3 		"/>
		<polygon class="st5" points="473.9,50.6 465.6,48 469.9,53.3 478.2,55.9 		"/>
		<polygon class="st2" points="594.1,156.1 591.7,161.8 595.1,167.1 597.5,161.4 		"/>
		<polygon class="st3" points="585,151.7 587.6,147.8 583.8,144.2 581.2,148 		"/>
		<polygon class="st1" points="509.9,71.2 509.1,72.2 512.3,73.5 514.6,71.7 		"/>
		<polygon class="st3" points="562.3,151.3 560.7,155.1 563,158.8 564.6,154.9 		"/>
		<polygon class="st2" points="559.9,134.2 555.2,133.7 554.4,134.7 557.6,136 		"/>
		<polygon class="st2" points="556.8,101.5 555.2,105.2 560.1,102.8 561.7,99.1 		"/>
		<polygon class="st4" points="659.6,102.4 654.2,100.3 648,100.7 653.4,102.7 		"/>
		<polygon class="st6" points="638.6,131.4 645.4,131.1 648,126.7 641.2,127 		"/>
		<polygon class="st2" points="548.9,68 551.7,62 544.8,58.3 542,64.4 		"/>
		<polygon class="st6" points="556.5,75.9 563.3,75.6 565.9,71.2 559,71.6 		"/>
		<polygon class="st5" points="684.6,113.2 677.6,112.3 679.6,116.3 686.6,117.3 		"/>
		<polygon class="st5" points="676.1,134.6 669.1,133.6 671.1,137.7 678,138.7 		"/>
		<polygon class="st5" points="510.7,0 509.4,0 509.9,1.2 		"/>
		<polygon class="st5" points="585.4,17.3 587.4,21.4 594.4,22.4 592.4,18.3 		"/>
		<polygon class="st2" points="681.1,157.9 684.3,159.2 686.6,157.5 681.9,157 		"/>
		<polygon class="st2" points="597.1,139.6 595.5,143.3 597.8,146.9 599.3,143.1 		"/>
		<polygon class="st3" points="465.6,156.7 470.4,159.2 476.6,159.5 471.8,156.9 		"/>
		<polygon class="st4" points="547.7,151.3 545.4,147.7 543.8,151.5 546.1,155.1 		"/>
		<polygon class="st4" points="506.1,145.4 503.8,141.8 502.2,145.6 504.6,149.2 		"/>
		<polygon class="st6" points="517.3,167.5 523.4,166.4 527.1,163.3 521.1,164.4 		"/>
		<polygon class="st5" points="650.1,162.8 655.6,164.6 652.8,161 647.2,159.3 		"/>
		<polygon class="st2" points="615.4,90.9 616.9,87.2 614.7,83.6 613.1,87.4 		"/>
		<polygon class="st2" points="461.2,82.3 459.6,86 461.9,89.6 463.4,85.8 		"/>
		<polygon class="st3" points="499.2,115.1 500.8,111.3 498.4,107.6 496.9,111.5 		"/>
		<polygon class="st4" points="584.8,111.4 587.1,115 588.7,111.1 586.4,107.5 		"/>
		<polygon class="st4" points="619.8,159.5 621.4,155.7 619,152.1 617.5,155.9 		"/>
		<polygon class="st6" points="560,20.4 563.8,17.3 557.7,18.4 553.9,21.5 		"/>
		<polygon class="st6" points="504.1,126.8 509.6,128.8 515.7,128.4 510.2,126.4 		"/>
		<polygon class="st1" points="797.8,190.5 795.7,188.5 796,193.2 797,193.9 		"/>
		<polygon class="st3" points="799.8,114.8 800,114.1 800,105.9 799.1,108.6 		"/>
		<polygon class="st4" points="795.7,12.7 799.8,13.7 800,13.5 800,10.2 798.9,9.9 		"/>
		<polygon class="st4" points="759.7,55.4 757.7,52.5 752.8,49.6 754.8,52.6 		"/>
		<polygon class="st4" points="749,213.9 753.9,216.7 751.9,213.7 747,210.9 		"/>
		<polygon class="st3" points="778.7,24.2 781.9,21.3 777.9,20.4 774.7,23.2 		"/>
		<polygon class="st6" points="784.8,29.8 786.8,35.6 790.5,38.9 788.4,33.1 		"/>
		<polygon class="st6" points="735.7,158 736.8,165.1 745,164.2 743.9,157.2 		"/>
		<polygon class="st6" points="774.7,119.3 782.9,118.5 781.8,111.4 773.6,112.3 		"/>
		<polygon class="st2" points="765.6,148.5 764.9,156.3 771.6,156.6 772.3,148.8 		"/>
		<polygon class="st2" points="778.9,59.6 772.2,59.3 771.5,67 778.2,67.4 		"/>
		<path class="st4" d="M740.7,96.4l-5.3-0.3l-0.3,2.9c1-0.3,2.1-0.5,3.2-0.7C739.3,97.6,740.1,96.9,740.7,96.4z"/>
		<path class="st4" d="M740.7,103.2c-0.2,0-0.5,0.1-0.8,0.2c-0.3,0.2-0.6,0.4-0.8,0.7l2.3,0.1l0.1-1.1
			C741.2,103.1,740.9,103.2,740.7,103.2z"/>
		<polygon class="st6" points="768.2,10.4 766.9,5.4 762.3,2.3 761.5,10.1 		"/>
		<polygon class="st3" points="718.5,14.3 722.1,19.9 728.9,16.1 725.3,10.5 		"/>
		<polygon class="st3" points="740.9,179.6 744.5,185.3 751.3,181.5 747.7,175.8 		"/>
		<polygon class="st2" points="720.2,122.3 715.5,126.5 721.4,127.9 726.2,123.8 		"/>
		<polygon class="st3" points="547.8,383.8 544.8,388.1 549,390 552,385.7 		"/>
		<polygon class="st1" points="797,27.5 796,26.8 795.1,30.2 797.3,32.2 		"/>
		<polygon class="st3" points="718.7,93.5 721.3,94.1 720.5,92 		"/>
		<path class="st2" d="M742.5,86.6l-0.2-4.7l-0.4-0.2c0,0.4,0,1.7-1,3.3L742.5,86.6z"/>
		<polygon class="st2" points="770.4,77.5 773.6,81.9 777.5,83 774.3,78.5 		"/>
		<polygon class="st4" points="789.3,168.5 788.1,174.2 789.4,180.2 790.6,174.5 		"/>
		<polygon class="st6" points="763.6,172.5 762.2,165.9 757.5,164 758.9,170.7 		"/>
		<polygon class="st6" points="800,76.4 800,74.4 799.5,74.2 		"/>
		<polygon class="st5" points="782.4,199.6 778.7,202.1 778.8,209.1 782.5,206.6 		"/>
		<polygon class="st5" points="760,194.4 756.3,197 756.4,204 760.1,201.5 		"/>
		<polygon class="st2" points="738.9,210.7 737.9,210.1 737.1,213.4 739.1,215.4 		"/>
		<polygon class="st2" points="739,123.2 735.8,126 739.8,127 743,124.2 		"/>
		<path class="st3" d="M704.2,4l1.1-0.4c-0.2,0.4-0.5,1.2-0.9,2.1l0.3,2.6l1.8-5.2L706.1,0h-1.4l-0.7,2.1L704.2,4z"/>
		<path class="st4" d="M721.9,76.8l1.9,0.4l0.5-0.4C723.5,76.7,722.7,76.7,721.9,76.8z"/>
		<polygon class="st4" points="722.3,31.4 719.1,34.3 723.2,35.2 726.4,32.4 		"/>
		<polygon class="st6" points="708.7,58.8 706.7,52.9 703,49.7 705.1,55.5 		"/>
		<polygon class="st5" points="727.3,185.9 730.4,182.5 731.3,176.8 728.2,180.2 		"/>
		<polygon class="st2" points="793.9,134.8 797.8,135.7 800,133.8 800,132.7 797,132 		"/>
		<polygon class="st3" points="756,24.6 759.3,21.8 755.2,20.8 752,23.7 		"/>
		<polygon class="st4" points="765.7,110.5 769.8,111.5 773,108.7 768.9,107.7 		"/>
		<polygon class="st4" points="726.8,149.7 730.8,150.7 734,147.8 730,146.9 		"/>
		<polygon class="st6" points="740.1,36.1 741.5,42.1 742.6,36.3 741.2,30.3 		"/>
		<path class="st2" d="M473.7,489.9c0,0,0-3,1.4-7.3c2.4-7.3,7.6-17.5,8.3-19.6l-3.4,1.3C479.9,464.3,469.4,483.1,473.7,489.9z"/>
		<path class="st7" d="M525.5,260c-3.4-1.4-9.6-2.3-9.6-2.3l-11.5-1.9c0,0-4.4-1.4-6.1-2.9c-0.1,1.1-0.1,1.8-0.1,1.8
			c0.3,0.7,0.8,1.5,1.7,2.1c2.4,1.7,10.4,3.6,10.4,3.6l11.1,1.8l6.4,2.2C527.7,264.3,528.9,261.4,525.5,260z"/>
		<path class="st4" d="M154.1,69.7c0.6,0.7,2.2,2.7,3.8,6c3.4,6.9,6.7,17.9,7.6,19.8l1.6-3.4c0,0-1.6-6.1-4.3-12l-1.8,0.3l1.4-1.2
			c-2.1-4.3-4.7-8.4-7.8-9.6C154.5,69.6,154.3,69.6,154.1,69.7z"/>
		<path class="st4" d="M162.8,80.2c-0.1-0.3-0.3-0.6-0.4-0.8l-1.4,1.2L162.8,80.2z"/>
		<path class="st8" d="M129.5,83.4c3.4-1.3,8.5-5,8.5-5l9.6-6.6c0,0,4.2-2,6.4-2.2c-0.1-0.2-0.2-0.3-0.2-0.3
			c0.3,0.1,0.5,0.2,0.8,0.3c0.1,0,0.2,0,0.3,0.1c0,0-1.8-2.2-4.8-1.8c-3,0.4-10,4.7-10,4.7L131,79l-6.1,2.8
			C124.9,81.8,126.1,84.8,129.5,83.4z"/>
		<path class="st8" d="M154.1,69.7c0.2,0,0.4,0,0.6,0c-0.3-0.1-0.5-0.2-0.8-0.3C153.9,69.4,154,69.5,154.1,69.7z"/>
		<path class="st6" d="M747.3,461.3c-1.6,1.7-4.1,4.2-7.7,6.8c-10.9,8-28.8,17.1-31.9,19.3l6.3,1.7c0,0,27.3-12.6,33.8-25.4
			C747.8,463,747.7,462.2,747.3,461.3z"/>
		<path class="st8" d="M738.3,439.3l-11.8-11.9l-3.1,4.1l-1.9-6.2l1.6-2l-5.4-7.6c0,0-4.7,2.9-1.3,8.5c3.3,5.5,11.2,13.2,11.2,13.2
			l14.4,14.6c0,0,4,5.5,5.5,9.4c1.3-1.4,1.9-2.2,1.9-2.2c-0.1,1.5-0.6,3-1.4,4.6c0,0.1,0,0.2,0,0.3c0,0,3.3-3.8,1.6-8.8
			C747.8,450.1,738.3,439.3,738.3,439.3z"/>
		<polygon class="st8" points="723.3,431.5 726.4,427.4 724.4,425.3 722.9,423.3 721.4,425.3 		"/>
		<path class="st8" d="M747.3,461.3c0.3,0.9,0.5,1.7,0.5,2.3c0.8-1.5,1.3-3.1,1.4-4.6C749.2,459.1,748.6,459.9,747.3,461.3z"/>
		<path class="st6" d="M359.9,10c-10.9,8-28.8,17.1-31.9,19.3l6.3,1.7c0,0,13.5-6.2,23.8-14.4l-0.1-1.1L359.9,10z"/>
		<path class="st6" d="M359.9,10l0.4,4.7c5-4.4,8.9-9.1,9.2-13.7C369.4,1,366.3,5.3,359.9,10z"/>
		<path class="st6" d="M357.9,15.5l0.1,1.1c0.8-0.6,1.5-1.2,2.2-1.9l-0.4-4.7L357.9,15.5z"/>
		<path class="st9" d="M368.9,1.4c0,0,0.4-0.5,0.9-1.4h-1C368.9,0.5,368.9,1,368.9,1.4z"/>
		<path class="st6" d="M23.6,76.7l3.1-5.7c0,0-1-5.6-3.1-12.6l-2.1-0.8l1.8-0.1c-3.3-11.1-9-25.3-17.1-27.9c0,0,3.4,4.1,6.4,11.4
			C17.8,53.5,22.3,73.1,23.6,76.7z"/>
		<path class="st6" d="M23.6,58.4c-0.1-0.3-0.2-0.6-0.3-0.9l-1.8,0.1L23.6,58.4z"/>
		<path class="st9" d="M6.5,30.1c0,0-2.3-3.3-6.5-3.7v4.3C2.6,30.1,5.2,29.6,6.5,30.1z"/>
		<path class="st8" d="M57.2,118.3v-12.8c-11.8-14.6-30.1,0.9-30.1,0.9l2.7,14.6C38,107.4,57.2,118.3,57.2,118.3z"/>
		<path class="st8" d="M558.8,10.9c8.2-13.7,27.3-2.7,27.3-2.7V0h-29.4L558.8,10.9z"/>
		<path class="st8" d="M435.1,286.6l-8.7,12c15.6-3.4,20.7,18,20.7,18l9.3-8.8C458.9,289.2,435.1,286.6,435.1,286.6z"/>
		<path class="st8" d="M262.1,342.6l9.3-8.8c2.5-18.6-21.3-21.3-21.3-21.3l-8.7,12C256.9,321.2,262.1,342.6,262.1,342.6z"/>
		<path class="st8" d="M647.6,168.6l-8.7,12c15.6-3.4,20.7,18,20.7,18l9.3-8.8C671.4,171.2,647.6,168.6,647.6,168.6z"/>
		<path class="st8" d="M467.1,201.8l12.4,8.2c-4.1-15.4,17-21.6,17-21.6l-9.2-8.9C468.6,178,467.1,201.8,467.1,201.8z"/>
		<path class="st8" d="M224.2,468.1c-18.7-1.6-20.2,22.3-20.2,22.3l12.4,8.2c-4.1-15.4,17-21.6,17-21.6L224.2,468.1z"/>
		<path class="st8" d="M14.9,426l-9.2-8.9c-2.1-0.2-4,0-5.7,0.4v18.2C4.9,428.9,14.9,426,14.9,426z"/>
		<path class="st8" d="M14.7,313.5l-9.2-8.9c-2-0.2-3.9,0-5.5,0.3v18C5,316.3,14.7,313.5,14.7,313.5z"/>
		<path class="st10" d="M594.2,506.9l1.1-8.5c-6.7-10.7-20.1-1.9-20.1-1.9l0.6,10C582.3,498,594.2,506.9,594.2,506.9z"/>
		<path class="st10" d="M342.1,238.6l1.1-8.5c-6.7-10.7-20.1-1.9-20.1-1.9l0.6,10C330.2,229.7,342.1,238.6,342.1,238.6z"/>
		<path class="st10" d="M486.2,339.1l0.6,10c6.6-8.4,18.5,0.5,18.5,0.5l1.1-8.5C499.6,330.3,486.2,339.1,486.2,339.1z"/>
		<path class="st10" d="M246.1,198.6l1.1-8.5c-6.7-10.7-20.1-1.9-20.1-1.9l0.6,10C234.2,189.7,246.1,198.6,246.1,198.6z"/>
		<path class="st10" d="M150.6,6.4c6.6-8.4,18.5,0.5,18.5,0.5l0.9-6.9h-19.7L150.6,6.4z"/>
		<path class="st10" d="M502.5,6.9l0.9-6.9h-19.7l0.4,6.4C490.7-2,502.5,6.9,502.5,6.9z"/>
		<path class="st10" d="M683.6,250.4c-6.7-10.7-20.1-1.9-20.1-1.9l0.6,10c6.6-8.4,18.5,0.5,18.5,0.5L683.6,250.4z"/>
		<path class="st7" d="M695.5,41.1c3.1,2.2,13.1,4.5,13.1,4.5l14,2.3l7.3,2.5c0.4-1.3,0.6-2.5,0.6-2.8c-0.4-0.9-1.2-1.8-2.7-2.4
			c-4.3-1.8-12.1-2.9-12.1-2.9l-14.5-2.4c0,0-6.4-2.1-8.2-4c-0.1,1-0.1,1.6-0.1,1.7C693.3,38.6,694,40,695.5,41.1z"/>
		<path class="st7" d="M709.3,74.9c0.2,0.1,4,2.4,11.6,1.9c0.3,0,0.7,0,1,0l-2.2-0.5l3.2-2.8l4.1,1l-2.7,2.4
			c5.8,0.1,12,1.3,14.8,2.7c0.4-1.5,0.4-3,0.4-3.4c-0.2-0.4-0.5-0.8-0.9-1c-1.8-0.9-5.7-3-10.6-3c-4.9,0-10.3-0.3-10.3-0.3
			s-3.5-0.3-4.9-0.4C710.8,73,709.5,74.6,709.3,74.9z"/>
		<path class="st7" d="M722.9,73.4l-3.2,2.8l2.2,0.5c0.8,0,1.6,0,2.4,0l2.7-2.4L722.9,73.4z"/>
		<path class="st2" d="M730.7,50.6l-0.7-0.2c-0.4,1.3-1,2.6-1.9,3.4c-2,1.6-9.2,7.9-13.1,9.7c-3.9,1.8-7.5,6.6-7.5,6.6l1.7,4.9
			c0,0,0,0,0,0c0,0,0,0,0,0s1.9-3.1,2.9-3.5c0.1,0,0.3,0,0.6,0.1c1.2-1,2.6-2.1,4.2-2.8c4.2-2,11.2-8,11.2-8s4.7-4,4.5-7.4
			c-0.2-3.4-1.9-5.7-1.9-5.7s0,0,0,0.1C731.3,49.1,730.7,50.6,730.7,50.6z"/>
		<path class="st2" d="M730.7,50.6c0,0,0.6-1.5-0.1-3.1c0,0.3-0.2,1.5-0.6,2.8L730.7,50.6z"/>
		<path class="st2" d="M709.2,74.9C709.2,74.9,709.3,74.9,709.2,74.9c0.2-0.3,1.6-1.8,3.4-3.4c-0.3,0-0.5,0-0.6-0.1
			C711.1,71.7,709.2,74.9,709.2,74.9z"/>
		<path class="st7" d="M735.5,90.4c2.5-0.3,6.9,0.8,8.4,1.2c0.3-0.9,0.4-1.7,0.5-1.9c-0.2-1-0.9-2.2-2.4-3c-0.5-0.3-1.1-0.5-1.9-0.6
			C739.1,87.3,737.7,88.7,735.5,90.4z"/>
		<path class="st7" d="M721.4,91.2l0.6-0.5l0.9,0.2c3.1-0.9,7.8-3.1,9.1-4c0.5-0.3,1-0.7,1.5-1.1c-2.8,0.2-5.7,0.8-7.9,1.5
			c-4.8,1.5-5.7,3-5.7,3l0.4,0.9C720.4,91.3,720.8,91.3,721.4,91.2z"/>
		<path class="st7" d="M721.4,91.2c0.4-0.1,0.9-0.2,1.5-0.3l-0.9-0.2L721.4,91.2z"/>
		<path class="st2" d="M739.1,79.5c-0.2,0.8-0.6,1.6-1.1,2.1c-1.2,1.4-3,2.9-4.6,4.1c2.5-0.2,4.9-0.2,6.7,0.2
			c0.1-0.2,0.3-0.4,0.4-0.6c0.1-0.2,0.2-0.3,0.3-0.5l-0.4-0.4l0.8-3.3l0.6,0.4c0-0.1,0-0.1,0-0.1l-2.3-5.5c0,0,0,0,0,0.1
			c0.9,1.6,0.9,4.3,0.9,4.3C740.1,80.1,739.7,79.8,739.1,79.5z"/>
		<polygon class="st2" points="721.3,94.1 721.3,94.1 722.1,96 		"/>
		<path class="st2" d="M720.2,91.1C720.1,91.1,720.1,91.1,720.2,91.1l0.3,0.9l0,0L720.2,91.1z"/>
		<path class="st2" d="M722.1,96c0,0,4.4,0.9,9.4-2.6c1.6-1.1,2.9-2.1,4-3c-0.2,0-0.4,0.1-0.6,0.1C732.2,91.3,722.1,96,722.1,96z"/>
		<polygon class="st2" points="720.5,92 720.5,92 721.3,94.1 721.3,94.1 		"/>
		<path class="st2" d="M740.4,84.6l0.4,0.4c1-1.6,1-3,1-3.3l-0.6-0.4L740.4,84.6z"/>
		<path class="st2" d="M739.1,79.5c0.6,0.3,1,0.6,1.3,0.9c0,0,0-2.7-0.9-4.3C739.5,76.5,739.5,78,739.1,79.5z"/>
		<path class="st2" d="M733.4,85.8c-0.5,0.4-1,0.8-1.5,1.1c-1.3,1-5.9,3.1-9.1,4l3.2,0.7l-3.2,2.8l-1.5-0.3l0.7,1.9
			c0,0,10.1-4.8,12.9-5.5c0.2,0,0.4-0.1,0.6-0.1c2.2-1.7,3.6-3.1,4.6-4.4C738.3,85.6,735.9,85.6,733.4,85.8z"/>
		<path class="st2" d="M721.4,91.2c-0.5,0.1-0.9,0-1.2-0.1l0.3,0.8L721.4,91.2z"/>
		<path class="st2" d="M720.5,92l0.8,2.2l1.5,0.3l3.2-2.8l-3.2-0.7c-0.6,0.2-1.1,0.3-1.5,0.3L720.5,92z"/>
		<path class="st7" d="M741.5,102.1l-0.1,1c1,0,1.9,0.1,2.5,0.3c1.2-1.8,1.7-3.4,1.7-3.4l0,0c0,0,0,0,0-0.1
			c-0.3-0.4-0.7-0.6-1.1-0.9C743.9,99.9,742.8,101,741.5,102.1z"/>
		<path class="st7" d="M727.9,103.3c2,0,4.6-1.2,7-2.7l0.2-1.6c-1.1,0.3-2.1,0.6-2.9,0.8c-3.6,1-4.4,3.3-4.4,3.3l1.8,5.2
			C729.6,108.4,728.5,105.1,727.9,103.3z"/>
		<path class="st7" d="M739.9,103.4c0.3-0.1,0.6-0.2,0.8-0.2c0.2,0,0.5-0.1,0.7-0.1l0.1-1C741,102.5,740.5,103,739.9,103.4z"/>
		<path class="st7" d="M738.3,98.3c-1.1,0.2-2.2,0.4-3.2,0.7l-0.2,1.6C736.1,99.9,737.3,99.1,738.3,98.3z"/>
		<path class="st2" d="M744.4,91.7c0,0-0.2-0.1-0.5-0.1c-0.4,1.3-1.1,3-2.1,3.9c-0.3,0.2-0.6,0.6-1.1,0.9l1.4,0.1l-0.2,1.7
			c0.9,0.1,1.8,0.4,2.6,0.9c0.1-0.1,0.1-0.2,0.2-0.2c1.1-1.8,1.6-4.5,1.6-4.5l-1.9-4.7c0,0,0,0,0,0
			C744.7,90.8,744.4,91.7,744.4,91.7z"/>
		<path class="st2" d="M729.6,108.4c0,0,3.6-0.1,6.6-2.2c0.9-0.6,1.9-1.3,2.8-2.1l-0.7,0C735,105.5,729.6,108.4,729.6,108.4z"/>
		<path class="st2" d="M738.4,104.1l0.7,0c0.3-0.2,0.6-0.4,0.8-0.7C739.5,103.6,739,103.8,738.4,104.1z"/>
		<path class="st2" d="M741.9,98.2l0.2-1.7l-1.4-0.1c-0.7,0.5-1.5,1.2-2.4,1.9C739.5,98.1,740.8,98,741.9,98.2z"/>
		<path class="st2" d="M744.4,91.7c0,0,0.2-0.9,0-2c0,0.2-0.2,1-0.5,1.9C744.2,91.7,744.4,91.7,744.4,91.7z"/>
		<path class="st2" d="M738.4,104.1l-3.7-0.2l0.3-3.3c-2.4,1.5-5,2.7-7,2.7c0.6,1.8,1.7,5.1,1.7,5.1S735,105.5,738.4,104.1z"/>
		<path class="st2" d="M741.5,102.1c1.3-1.1,2.4-2.2,3-3c-0.8-0.5-1.7-0.8-2.6-0.9L741.5,102.1z"/>
		<path class="st2" d="M738.3,98.3c-1,0.8-2.2,1.6-3.4,2.3l-0.3,3.3l3.7,0.2c0.6-0.3,1.1-0.5,1.5-0.6c0.6-0.4,1.1-0.9,1.6-1.3
			l0.4-3.9C740.8,98,739.5,98.1,738.3,98.3z"/>
		<path class="st2" d="M744.6,103.6c0,0-0.2-0.1-0.6-0.2c-1.1,1.6-2.8,3.3-5.3,3.8c0.2,1.6,0.7,5.2,0.7,5.2s3.3-1.2,5.9-3.8
			c2.6-2.6,2.1-3.5,2.1-3.5l-1.6-5.1C746.1,102.6,744.6,103.6,744.6,103.6z"/>
		<path class="st2" d="M743.9,103.4c0.4,0.1,0.6,0.2,0.6,0.2s1.5-1,1.1-3.6l0,0C745.7,100,745.1,101.7,743.9,103.4z"/>
		<path class="st2" d="M700.9,5.2c0,0-13.3,23.6-7.9,32.2c0,0,0,0,0,0c-0.3-1.2-0.2-2.1-0.2-2.1c0.1,0.2,0.2,0.3,0.4,0.5
			c0.2-1.6,0.6-4.3,1.6-7.5c2.5-7.7,7.4-17.8,9.6-22.5L704.2,4L700.9,5.2z"/>
		<path class="st2" d="M704.2,4l0.2,1.7c0.4-1,0.7-1.7,0.9-2.1L704.2,4z"/>
		<path class="st2" d="M692.8,35.3c0,0-0.1,0.9,0.2,2.1c0-0.1,0-0.7,0.1-1.7C693,35.6,692.9,35.4,692.8,35.3z"/>
		<path class="st7" d="M234.4,4.6c0.5-0.3,1-0.7,1.5-1.1c-2.8,0.2-5.7,0.8-7.9,1.5c-4.8,1.5-5.7,3-5.7,3l0.4,0.9
			C224.3,9.6,232.6,5.9,234.4,4.6z"/>
		<path class="st7" d="M240.9,5.6c-0.8,0.7-1.7,1.6-2.9,2.4c2.5-0.3,6.9,0.8,8.4,1.2c0.3-0.9,0.4-1.7,0.5-1.9c-0.2-1-0.9-2.2-2.4-3
			c0,0-0.1,0-0.1-0.1l-0.8,2.2L240.9,5.6z"/>
		<path class="st7" d="M240.9,5.6l2.6,0.9l0.8-2.2c-0.5-0.2-1.1-0.4-1.7-0.6C242.1,4.3,241.6,4.9,240.9,5.6z"/>
		<path class="st2" d="M237.5,2.1c-0.5,0.5-1.1,0.9-1.6,1.3c0.4,0,0.8-0.1,1.2-0.1L237.5,2.1z"/>
		<path class="st2" d="M222.6,8.8l2,4.9L222.6,8.8C222.6,8.8,222.6,8.8,222.6,8.8z"/>
		<path class="st2" d="M224.6,13.7c0,0,4.4,0.9,9.4-2.6c1.6-1.1,2.9-2.1,4-3c-0.2,0-0.4,0.1-0.6,0.1C234.7,9,224.6,13.7,224.6,13.7z
			"/>
		<path class="st2" d="M237.5,2.1l-0.5,1.2c2.1-0.1,4,0,5.6,0.3c0.1-0.2,0.3-0.4,0.4-0.6c0.9-1.3,1.2-2.4,1.3-3.1h-4.4
			C239.2,0.7,238.4,1.4,237.5,2.1z"/>
		<path class="st2" d="M240.9,5.6l-4.1-1.3l0.3-0.9c-0.4,0-0.8,0-1.2,0.1c-0.5,0.4-1,0.8-1.5,1.1c-1.8,1.3-10.1,5.1-11.8,4.2
			l1.9,4.9c0,0,10.1-4.8,12.9-5.5c0.2,0,0.4-0.1,0.6-0.1C239.1,7.2,240.1,6.4,240.9,5.6z"/>
		<path class="st2" d="M240.9,5.6c0.7-0.7,1.3-1.3,1.8-1.9c-1.5-0.3-3.5-0.4-5.6-0.3l-0.3,0.9L240.9,5.6z"/>
		<path class="st7" d="M242.4,21.1c0.3-0.1,0.6-0.2,0.8-0.2c1.2-0.2,2.5,0,3.2,0.2c1.2-1.8,1.7-3.4,1.7-3.4l0,0c0,0,0,0,0-0.1
			c-0.3-0.4-0.7-0.6-1.1-0.9C246.2,17.9,244.4,19.5,242.4,21.1z"/>
		<path class="st7" d="M240.8,16c-2.3,0.4-4.5,1.1-6.1,1.6c-3.6,1-4.4,3.3-4.4,3.3l1.8,5.2c0,0-1.1-3.3-1.7-5.1
			C233.5,21,237.7,18.3,240.8,16z"/>
		<path class="st2" d="M238.7,23.9c1.1-0.8,2.4-1.8,3.7-2.8c-2.9,1-10.3,5-10.3,5S235.7,26,238.7,23.9z"/>
		<path class="st2" d="M246.9,9.4c0,0-0.2-0.1-0.5-0.1c-0.4,1.3-1.1,3-2.1,3.9c-0.6,0.6-1.9,1.7-3.5,2.9c2.2-0.3,4.4-0.3,6.2,0.8
			c0.1-0.1,0.1-0.2,0.2-0.2c1.1-1.8,1.6-4.5,1.6-4.5l-1.9-4.7c0,0,0,0,0,0C247.2,8.5,246.9,9.4,246.9,9.4z"/>
		<path class="st2" d="M246.9,9.4c0,0,0.2-0.9,0-2c0,0.2-0.2,1-0.5,1.9C246.7,9.3,246.9,9.4,246.9,9.4z"/>
		<path class="st2" d="M240.8,16c-3.1,2.3-7.3,5-10.4,5c0.6,1.8,1.7,5.1,1.7,5.1s7.4-3.9,10.3-5c2-1.6,3.8-3.2,4.6-4.4
			C245.2,15.7,243,15.6,240.8,16z"/>
		<path class="st2" d="M247,21.3c0,0-0.2-0.1-0.6-0.2c-1.1,1.6-2.8,3.3-5.3,3.8c0.2,1.6,0.7,5.2,0.7,5.2s3.3-1.2,5.9-3.8
			c2.6-2.6,2.1-3.5,2.1-3.5l-1.6-5.1C248.5,20.3,247,21.3,247,21.3z"/>
		<path class="st2" d="M246.4,21.1c0.4,0.1,0.6,0.2,0.6,0.2s1.5-1,1.1-3.6l0,0C248.1,17.7,247.6,19.3,246.4,21.1z"/>
		<path class="st7" d="M150.1,236.4c0,0.2,0.2,1.1,0.6,2.1l6.4-0.9l12.2,0.2c0,0,8.8-0.4,11.4-1.6c1.3-0.6,1.9-1.5,2.1-2.3
			c0-0.1,0-0.5-0.1-1.2c-1.5,1.2-7.1,1.8-7.1,1.8l-12.6-0.1c0,0-6.8-0.2-10.5,0.6C151.1,235.2,150.4,235.8,150.1,236.4z"/>
		<path class="st7" d="M166.4,256.1c-1.3-0.1-4.3-0.3-4.3-0.3s-4.7-0.5-9-1.2c-4.3-0.6-7.7,0.4-9.2,0.8c-0.3,0.1-0.6,0.3-0.8,0.6
			c0,0.2,0,1.4,0.4,2.5c2.9-0.8,10.1-0.7,15.9,0.4c6.6,1.3,10,0.2,10.1,0.1C169.3,258.8,168.1,257.5,166.4,256.1z"/>
		<path class="st2" d="M150.1,236.4C150.1,236.3,150.1,236.3,150.1,236.4c0,0-1.4,1.4-1.5,3.8s4.1,5.9,4.1,5.9s6.3,5.3,10,7.3
			c1.4,0.7,2.6,1.7,3.7,2.6c0.2,0,0.4,0,0.5,0c0.9,0.4,2.6,2.9,2.6,2.9s0,0,0,0c0,0,0,0,0,0l1.4-3.3c0,0-3.3-3.9-6.8-5.8
			c-3.4-1.8-10-7.4-11.7-8.8c-0.8-0.7-1.4-1.7-1.7-2.7l-0.6,0.1C150.1,238.6,149.5,237.4,150.1,236.4z"/>
		<path class="st2" d="M150.1,238.6l0.6-0.1c-0.4-1-0.6-1.9-0.6-2.1C149.5,237.4,150.1,238.6,150.1,238.6z"/>
		<path class="st2" d="M166.9,256.1c-0.1,0-0.3,0-0.5,0c1.7,1.4,2.9,2.7,3.1,3c0,0,0,0,0,0S167.7,256.5,166.9,256.1z"/>
		<path class="st7" d="M160.3,269.4l0.3-0.6c0,0-0.8-1.2-5-2.9c-1.9-0.8-4.5-1.6-7-2.1c0.5,0.4,0.9,0.7,1.3,1
			C151.5,266,158.9,269.8,160.3,269.4z"/>
		<path class="st7" d="M142.7,263.1c-0.6,0-1.2,0.1-1.6,0.2c-1.3,0.4-1.9,1.2-2,1.9c0,0.1,0.2,0.7,0.5,1.4c1.3-0.1,5.2-0.3,7.3,0.3
			C144.9,265.3,143.6,264.1,142.7,263.1z"/>
		<path class="st2" d="M160.4,269.4C160.4,269.4,160.3,269.4,160.4,269.4l-1.6,3.3L160.4,269.4z"/>
		<path class="st2" d="M143,256C143,255.9,143,255.9,143,256l-1.9,3.6c0,0-0.1,1.3,1.2,3c0.1,0.2,0.3,0.3,0.4,0.5
			c1.6-0.1,3.7,0.2,5.9,0.7c-1.4-1.1-3.1-2.5-4.2-3.6c-0.5-0.5-0.8-1.1-1-1.7c-0.5,0.1-0.9,0.3-1.1,0.5
			C142.3,258.9,142.3,257,143,256z"/>
		<path class="st2" d="M146.8,266.8c1,0.8,2.2,1.7,3.6,2.7c4.5,3.2,8.3,3.2,8.3,3.2s-9-4.8-11.4-5.7
			C147.2,266.9,147,266.9,146.8,266.8z"/>
		<path class="st2" d="M142.3,258.9c0.2-0.2,0.6-0.3,1.1-0.5c-0.4-1.1-0.4-2.3-0.4-2.5C142.3,257,142.3,258.9,142.3,258.9z"/>
		<path class="st2" d="M142.7,263.1c0.9,1.1,2.2,2.3,4.1,3.8c0.2,0,0.3,0.1,0.5,0.2c2.4,0.9,11.4,5.7,11.4,5.7l1.5-3.3
			c-1.4,0.4-8.8-3.4-10.4-4.6c-0.4-0.3-0.9-0.6-1.3-1C146.4,263.3,144.3,263,142.7,263.1z"/>
		<path class="st7" d="M139.8,275.2c0.6,0,1.5,0,2.4,0.2l0-0.5c-1.3-1.1-2.5-2.2-3.1-2.9c-0.3,0.1-0.7,0.3-1,0.5c0,0,0,0,0,0l0,0
			C138.2,272.5,138.7,273.8,139.8,275.2z"/>
		<path class="st7" d="M153.8,277.2c-0.5,1.2-1.4,3.5-1.4,3.5L153.8,277.2c0.1-0.1-0.7-1.9-3.9-3.1c-1.4-0.5-3.2-1.3-5.1-1.9l0,0.1
			C147.5,274.4,151.2,276.8,153.8,277.2z"/>
		<path class="st7" d="M144.8,272.4l0-0.1c-0.1,0-0.2,0-0.2-0.1C144.7,272.3,144.7,272.3,144.8,272.4z"/>
		<path class="st7" d="M142.2,275.4c0.1,0,0.3,0.1,0.4,0.1c0.2,0,0.4,0.1,0.7,0.3c-0.4-0.3-0.7-0.6-1-0.8L142.2,275.4z"/>
		<path class="st2" d="M143.6,275.8L143.6,275.8c1,0.9,2.1,1.7,3,2.4c2.7,2,5.9,2.5,5.9,2.5S146.3,277.1,143.6,275.8z"/>
		<path class="st2" d="M139,265.2C139,265.1,139,265.1,139,265.2l-1.6,3.1c0,0,0.5,2,1.5,3.5c0,0.1,0.1,0.1,0.2,0.2
			c1.1-0.4,2.4-0.4,3.7-0.1l0.3-0.7c-0.8-0.6-1.4-1.2-1.8-1.5c-0.9-0.8-1.5-2.1-1.9-3.1c-0.3,0-0.5,0-0.5,0S138.8,265.9,139,265.2z"
			/>
		<path class="st2" d="M144.6,272.2c-0.5-0.4-0.9-0.7-1.4-1l-0.3,0.7C143.4,271.9,144,272,144.6,272.2z"/>
		<path class="st2" d="M143.3,275.7c0.1,0.1,0.1,0.1,0.2,0.2l0-0.1C143.5,275.8,143.4,275.8,143.3,275.7z"/>
		<path class="st2" d="M139,266.6c0,0,0.2,0,0.5,0c-0.3-0.7-0.4-1.3-0.5-1.4C138.8,265.9,139,266.6,139,266.6z"/>
		<path class="st2" d="M144.8,272.4l-0.1,1.3l-1.2,2.2c2.7,1.2,8.9,4.8,8.9,4.8s0.8-2.3,1.4-3.5
			C151.2,276.8,147.5,274.4,144.8,272.4z"/>
		<path class="st2" d="M142.3,274.9l0.2-2.2l0.5-0.9c-1.4-0.2-2.6-0.2-3.7,0.1C139.7,272.7,140.9,273.8,142.3,274.9z"/>
		<path class="st2" d="M142.3,274.9c0.3,0.3,0.7,0.6,1,0.8c0.1,0,0.2,0.1,0.3,0.1l1.2-2.2l0.1-1.3c-0.1-0.1-0.2-0.1-0.2-0.2
			c-0.6-0.2-1.1-0.3-1.7-0.4l-0.5,0.9L142.3,274.9z"/>
		<path class="st2" d="M142.1,277.4c-0.9-0.7-1.7-1.5-2.3-2.2c-0.3,0-0.6,0.1-0.6,0.1s-1.3-0.9-1.1-2.8l-1.3,3.5
			c0,0-0.5,0.5,1.9,2.8c2.4,2.3,5.3,3.6,5.3,3.6s0.4-2.6,0.5-3.7c-0.7-0.2-1.4-0.5-2-0.9l-0.6,1.1L142.1,277.4z"/>
		<path class="st2" d="M142,278.8l0.6-1.1c-0.2-0.1-0.3-0.2-0.5-0.3L142,278.8z"/>
		<path class="st2" d="M139.2,275.3c0,0,0.2,0,0.6-0.1c-1.1-1.4-1.6-2.7-1.6-2.7l0,0C137.9,274.3,139.2,275.3,139.2,275.3z"/>
		<path class="st2" d="M182.9,232.4c0,0,0.1,0.7-0.2,1.5c0,0,0,0,0,0c4.5-5.5-7.7-24.4-7.7-24.4l-3.8-1.8c0.8,2,6.9,12.2,9.8,19.3
			c1,2.5,1.4,4.5,1.6,5.7C182.8,232.6,182.9,232.5,182.9,232.4z"/>
		<path class="st2" d="M182.9,232.4c-0.1,0.1-0.2,0.2-0.3,0.3c0.1,0.7,0.1,1.2,0.1,1.2C183,233.1,182.9,232.4,182.9,232.4z"/>
		<path class="st7" d="M14,251c1.3-0.6,1.9-1.5,2.1-2.3c0-0.1,0-0.5-0.1-1.2c-1.5,1.2-7.1,1.8-7.1,1.8L0,249.2v3.3l2.6,0
			C2.6,252.5,11.4,252.2,14,251z"/>
		<path class="st7" d="M0,271v3.2c1.8-0.1,2.8-0.4,2.8-0.5C2.6,273.5,1.6,272.3,0,271z"/>
		<path class="st2" d="M2.9,273.8C2.9,273.8,2.8,273.8,2.9,273.8C2.9,273.8,2.9,273.8,2.9,273.8l1.4-3.3c0,0-1.9-2.2-4.3-4.1v4.5
			c0.1,0,0.2,0,0.3,0C1.1,271.2,2.9,273.8,2.9,273.8z"/>
		<path class="st2" d="M2.8,273.8C2.8,273.8,2.9,273.8,2.8,273.8c0,0-1.7-2.5-2.6-2.9c-0.1,0-0.1,0-0.3,0v0.2
			C1.6,272.3,2.6,273.5,2.8,273.8z"/>
		<path class="st2" d="M16.3,247.1c0,0,0.1,0.7-0.2,1.5c0,0,0,0,0,0c4.5-5.5-7.7-24.4-7.7-24.4l-3.8-1.8c0.8,2,6.9,12.2,9.8,19.3
			c1,2.5,1.4,4.5,1.6,5.7C16.1,247.3,16.2,247.3,16.3,247.1z"/>
		<path class="st2" d="M16.3,247.1c-0.1,0.1-0.2,0.2-0.3,0.3c0.1,0.7,0.1,1.2,0.1,1.2C16.4,247.8,16.3,247.1,16.3,247.1z"/>
		<path class="st2" d="M497.7,252.1c0.1,0.2,0.3,0.5,0.6,0.7c0.2-1.3,0.5-3.2,1.3-5.5c2.4-7.3,7.6-17.5,8.3-19.6l-1.2,0.5l0.3,0.8
			l-0.9-0.6l-1.7,0.7c0,0-10.6,18.8-6.2,25.6v0C497.6,253.3,497.7,252.1,497.7,252.1z"/>
		<polygon class="st2" points="506.6,228.2 506.1,228.4 507,229 		"/>
		<path class="st2" d="M497.7,252.1c0,0-0.1,1.2,0.5,2.5c0,0,0-0.7,0.1-1.8C498,252.6,497.8,252.4,497.7,252.1z"/>
	</g>
</g>
<g id="Background_1_">
	<g id="Background">
		<g class="st11">
			<g class="st12">
				<defs>
					<rect id="SVGID_1_" x="0.2" y="0.8" class="st12" width="799.6" height="798.3"/>
				</defs>
				<clipPath id="SVGID_2_">
					<use xlink:href="#SVGID_1_"  style="overflow:visible;"/>
				</clipPath>
				<g class="st13">
					<defs>
						<rect id="SVGID_3_" x="-0.9" y="0.8" width="802.4" height="798.3"/>
					</defs>
					<clipPath id="SVGID_4_">
						<use xlink:href="#SVGID_3_"  style="overflow:visible;"/>
					</clipPath>
				</g>
			</g>
		</g>
	</g>
</g>
</svg>
